<svg width="24" height="23" viewBox="0 0 24 23" fill="none" xmlns="http://www.w3.org/2000/svg">
<path d="M12 21.1078C11.31 21.1078 10.66 20.7839 10.2 20.2194L8.7 18.3687C8.67 18.3317 8.55 18.2854 8.5 18.2761H8C3.83 18.2761 1.25 17.2305 1.25 12.0299V7.40301C1.25 3.31286 3.58 1.15674 8 1.15674H16C20.42 1.15674 22.75 3.31286 22.75 7.40301V12.0299C22.75 16.12 20.42 18.2761 16 18.2761H15.5C15.42 18.2761 15.35 18.3132 15.3 18.3687L13.8 20.2194C13.34 20.7839 12.69 21.1078 12 21.1078ZM8 2.5448C4.42 2.5448 2.75 4.09017 2.75 7.40301V12.0299C2.75 16.2126 4.3 16.8881 8 16.8881H8.5C9.01 16.8881 9.59 17.1564 9.9 17.5358L11.4 19.3866C11.75 19.8123 12.25 19.8123 12.6 19.3866L14.1 17.5358C14.43 17.1287 14.95 16.8881 15.5 16.8881H16C19.58 16.8881 21.25 15.3427 21.25 12.0299V7.40301C21.25 4.09017 19.58 2.5448 16 2.5448H8Z" fill="#ffffff"/>
<path d="M12 11.1045C11.44 11.1045 11 10.6881 11 10.1791C11 9.67014 11.45 9.25372 12 9.25372C12.55 9.25372 13 9.67014 13 10.1791C13 10.6881 12.56 11.1045 12 11.1045Z" fill="#ffffff"/>
<path d="M16 11.1045C15.44 11.1045 15 10.6881 15 10.1791C15 9.67014 15.45 9.25372 16 9.25372C16.55 9.25372 17 9.67014 17 10.1791C17 10.6881 16.56 11.1045 16 11.1045Z" fill="#ffffff"/>
<path d="M8 11.1045C7.44 11.1045 7 10.6881 7 10.1791C7 9.67014 7.45 9.25372 8 9.25372C8.55 9.25372 9 9.67014 9 10.1791C9 10.6881 8.56 11.1045 8 11.1045Z" fill="#ffffff"/>
</svg>
