<svg width="118" height="118" viewBox="0 0 118 118" fill="none" xmlns="http://www.w3.org/2000/svg">
<path d="M108.798 61.4399V69.6388C108.8 70.981 108.267 72.2687 107.318 73.218C106.369 74.1672 105.081 74.7001 103.739 74.6992C102.663 74.6985 101.631 75.1256 100.871 75.8863C100.11 76.647 99.683 77.6789 99.6837 78.7547V79.3756C99.6837 80.4515 99.2563 81.4834 98.4955 82.2441C97.7347 83.0049 96.7029 83.4323 95.627 83.4323H19.8088C17.8488 83.4327 16.0523 82.3396 15.1518 80.5987C14.2514 78.8578 14.3973 76.76 15.5301 75.1606C15.7024 74.9165 15.8958 74.6882 16.1083 74.4783C17.0893 73.4964 18.4208 72.9454 19.8088 72.9472H23.9614C27.7312 72.9474 30.918 70.1552 31.4133 66.4182C31.4433 66.1938 31.463 65.9664 31.4722 65.7359C31.4722 65.6353 31.478 65.5335 31.478 65.4318C31.4799 63.4377 30.6885 61.5247 29.2785 60.1147C27.8685 58.7047 25.9555 57.9133 23.9614 57.9152H22.324C21.5827 57.9155 20.8436 57.8348 20.1199 57.6746C15.905 56.7315 12.7493 53.2232 12.2563 48.9323C12.2297 48.701 12.2112 48.4801 12.2008 48.25C12.1939 48.0958 12.1904 47.9385 12.1904 47.7782C12.1898 45.0892 13.2577 42.5101 15.1592 40.6087C17.0606 38.7073 19.6396 37.6394 22.3286 37.64H22.4789C23.9982 37.6393 25.4272 36.9188 26.3311 35.6978C27.2351 34.4767 27.507 32.8996 27.064 31.4463C26.9931 31.2122 26.9038 30.9841 26.7969 30.7641C25.9973 29.1065 24.3193 28.0531 22.4789 28.0535H20.6368C17.8688 28.0535 15.6249 25.8096 15.6249 23.0416C15.6249 22.926 15.6249 22.8103 15.6365 22.704C15.6513 22.4746 15.6822 22.2466 15.729 22.0217C16.2136 19.697 18.2621 18.0307 20.6368 18.0298H54.7309C56.9458 18.0301 58.7511 19.807 58.7864 22.0217V22.0864V23.7528C58.7858 24.8289 59.213 25.8611 59.9739 26.622C60.7348 27.3829 61.767 27.8101 62.8431 27.8095C64.9211 27.809 66.6632 29.3794 66.8777 31.4463C66.8917 31.5858 66.8987 31.7259 66.8986 31.8661V33.5845C66.8992 35.8245 68.7152 37.64 70.9552 37.64H76.5846C78.9278 37.6359 81.2261 38.2824 83.2235 39.5076C83.5689 39.718 83.9035 39.9458 84.2261 40.1899C84.7062 40.5497 85.1599 40.9435 85.5837 41.3682C87.4562 43.2357 88.6979 45.6418 89.135 48.25C89.1743 48.4755 89.2055 48.7021 89.231 48.9323C89.2849 49.4087 89.3119 49.8878 89.3119 50.3674C89.3119 51.4429 89.7392 52.4745 90.4997 53.235C91.2603 53.9956 92.2918 54.4228 93.3674 54.4228H101.787C103.647 54.4225 105.431 55.1613 106.746 56.4765C108.061 57.7916 108.799 59.5755 108.798 61.4353V61.4399Z" fill="#F3F4FE"/>
<rect x="102.073" y="82.4192" width="8.5643" height="2.03642" rx="1.01821" fill="#D2D6FA"/>
<rect x="7.58301" y="82.4192" width="93.6615" height="2.03642" rx="1.01821" fill="#D2D6FA"/>
<path d="M58.788 22.0911V22.7086H15.6357C15.6505 22.4793 15.6814 22.2513 15.7283 22.0264H58.7868C58.788 22.0483 58.788 22.0692 58.788 22.0911Z" fill="#EDEEFE"/>
<path d="M66.8786 31.4511H27.0591C26.9882 31.217 26.8989 30.9888 26.792 30.7688H66.7479C66.811 30.9921 66.8547 31.2203 66.8786 31.4511Z" fill="#EDEEFE"/>
<path d="M84.227 40.1945H15.6016C15.8747 39.9518 16.1608 39.7241 16.4585 39.5122H83.2244C83.5698 39.7226 83.9044 39.9504 84.227 40.1945Z" fill="#EDEEFE"/>
<path d="M89.2322 48.9394H12.2518C12.2252 48.7081 12.2067 48.4872 12.1963 48.2571H89.1362C89.1755 48.4768 89.2067 48.7081 89.2322 48.9394Z" fill="#EDEEFE"/>
<path d="M107.705 57.6794H20.1196C19.4223 57.525 18.7436 57.2966 18.0947 56.9983H107.212C107.39 57.2152 107.555 57.4427 107.705 57.6794Z" fill="#EDEEFE"/>
<path d="M108.799 65.7407V66.423H31.4111C31.4412 66.1987 31.4609 65.9712 31.4701 65.7407H108.799Z" fill="#EDEEFE"/>
<path d="M105.22 74.4829C104.741 74.6303 104.241 74.7048 103.739 74.7038C103.084 74.7031 102.439 74.8618 101.859 75.1663H15.5312C15.7035 74.9223 15.897 74.694 16.1095 74.4841L105.22 74.4829Z" fill="#EDEEFE"/>
<path d="M23.6405 75.3172C22.1444 73.9216 22.063 71.5775 23.4586 70.0814L35.0005 57.7086C36.3961 56.2125 38.7402 56.1311 40.2363 57.5267C41.7324 58.9223 41.8138 61.2664 40.4182 62.7625L28.8764 75.1353C27.4808 76.6314 25.1366 76.7128 23.6405 75.3172Z" fill="#FFA84D"/>
<path d="M23.6405 75.3172C22.1444 73.9216 22.063 71.5775 23.4586 70.0814L35.0005 57.7086C36.3961 56.2125 38.7402 56.1311 40.2363 57.5267C41.7324 58.9223 41.8138 61.2664 40.4182 62.7625L28.8764 75.1353C27.4808 76.6314 25.1366 76.7128 23.6405 75.3172Z" fill="#FFA84D"/>
<path d="M41.4224 60.2951C41.2222 59.8465 40.9335 59.443 40.5736 59.1086L40.5551 59.0913C39.8392 58.4234 38.8872 58.0672 37.9087 58.1013C36.9301 58.1353 36.0052 58.5568 35.3374 59.2729L23.7734 71.6637C23.1479 72.3318 22.7945 73.2094 22.7824 74.1245C22.1719 72.7683 22.435 71.1783 23.4496 70.091L35.0136 57.7002C35.6818 56.9841 36.607 56.5629 37.5857 56.5291C38.5644 56.4952 39.5165 56.8516 40.2325 57.5198L40.2498 57.5359C41.0152 58.2471 41.4417 59.2505 41.4224 60.2951Z" fill="#FFBE83"/>
<path d="M63.279 82.1117C62.3501 82.4327 61.3316 82.371 60.4482 81.9402C59.5648 81.5093 58.8891 80.7448 58.5702 79.8151L57.1339 75.6301L56.3614 73.374L52.4933 62.2505C52.064 60.9985 52.3353 59.6126 53.205 58.6148C54.0746 57.6171 55.4105 57.1591 56.7095 57.4133C58.0084 57.6676 59.073 58.5955 59.5022 59.8475L62.7529 69.1716L65.5779 77.4133C66.2395 79.3455 65.2106 81.4483 63.279 82.1117Z" fill="#FFA84D"/>
<path d="M63.5501 82.0041C63.4611 82.0445 63.3686 82.0792 63.2749 82.1116C62.3463 82.4319 61.3284 82.3698 60.4455 81.9391C59.5627 81.5083 58.8874 80.7441 58.5684 79.815L54.425 67.7237C54.0202 66.5502 54.2307 65.252 54.9856 64.2666C55.7405 63.2811 56.9391 62.7399 58.1775 62.8252C56.4053 63.5938 55.5224 65.5962 56.1503 67.423L60.2937 79.5097C60.7769 80.9218 62.061 81.9054 63.5501 82.0041Z" fill="#FFBE83"/>
<path d="M37.8545 63.2576H55.7394V82.4191H37.8545V63.2576Z" fill="#FFDAB2"/>
<path d="M39.8638 55.5676H53.7291C56.946 55.5676 59.5539 58.1755 59.5539 61.3924C59.5539 65.8733 55.9214 69.5057 51.4406 69.5057H42.1524C37.6715 69.5057 34.0391 65.8733 34.0391 61.3924C34.0391 58.1755 36.6469 55.5676 39.8638 55.5676V55.5676Z" fill="#FFDAB2"/>
<path d="M37.8545 63.2576H55.7394V82.4191H37.8545V63.2576Z" fill="#FFDAB2"/>
<path d="M39.8638 55.5676H53.7291C56.946 55.5676 59.5539 58.1755 59.5539 61.3924C59.5539 65.8733 55.9214 69.5057 51.4406 69.5057H42.1524C37.6715 69.5057 34.0391 65.8733 34.0391 61.3924C34.0391 58.1755 36.6469 55.5676 39.8638 55.5676V55.5676Z" fill="#FFDAB2"/>
<rect x="58.377" y="74.9211" width="21.1899" height="7.40906" rx="3.70453" fill="#FF9F8C"/>
<ellipse cx="78.0189" cy="78.1349" rx="5.17836" ry="4.06243" transform="rotate(-24.43 78.0189 78.1349)" fill="#FF9F8C"/>
<path d="M82.7317 75.999C82.6654 75.8512 82.5881 75.7085 82.5004 75.5723C82.9861 77.5127 81.6459 79.7816 79.2718 80.8605C79.0508 80.9614 78.8241 81.0495 78.593 81.1241C77.6473 81.4463 76.6346 81.5199 75.6522 81.3381C75.5817 81.3439 75.5112 81.345 75.4406 81.345H74.0738L61.6598 81.3543C60.3769 81.3554 59.1849 80.6921 58.5098 79.6012C58.9473 81.2158 60.4137 82.336 62.0865 82.3337L75.8685 82.3256C75.939 82.3256 76.0096 82.3256 76.079 82.3187C77.1903 82.5407 78.4739 82.3997 79.6996 81.8434C82.3004 80.6604 83.6592 78.0458 82.7317 75.999Z" fill="#F78F7A"/>
<path d="M53.6804 55.5676H50.8184C52.3632 55.5673 53.8449 56.1807 54.9374 57.2728C56.03 58.365 56.644 59.8464 56.6443 61.3913C56.6458 63.8345 55.5449 66.1479 53.6481 67.6879C53.134 68.102 52.8334 68.7253 52.8293 69.3855V82.4192H55.7388V68.273C58.0941 66.8011 59.5336 64.2275 59.555 61.4502C59.5781 58.2169 56.9184 55.5676 53.6804 55.5676Z" fill="#FFECD9"/>
<path d="M77.0094 73.0219C77.3753 72.5395 78.0629 72.445 78.5453 72.8109C79.0277 73.1768 79.1221 73.8645 78.7563 74.3469L77.021 76.6346C76.6552 77.117 75.9675 77.2114 75.4851 76.8455C75.0027 76.4796 74.9083 75.792 75.2742 75.3096L77.0094 73.0219Z" fill="#FF9F8C"/>
<path d="M43.3888 79.6357H44.5834C46.1207 79.6357 47.3669 80.8819 47.3669 82.4192H40.5996C40.5996 81.68 40.8937 80.9711 41.4169 80.449C41.9402 79.9268 42.6496 79.6342 43.3888 79.6357Z" fill="#4970DB"/>
<path d="M41.3075 77.9475C41.5056 79.7021 40.4365 81.3522 38.7541 81.8885L38.6663 81.9162C38.5795 81.9428 38.4905 81.9648 38.4003 81.9833C38.3714 81.9902 38.3413 81.9949 38.3101 82.0006L38.2268 82.0157H38.2106L38.1378 82.0261H38.1308C37.9737 82.0481 37.8154 82.0597 37.6567 82.0608C37.6035 82.0608 37.548 82.0608 37.4937 82.0608C37.4116 82.0608 37.3283 82.0527 37.2474 82.0446C37.1664 82.0365 37.0704 82.0226 36.9814 82.0076C36.8478 81.9841 36.7158 81.9528 36.5859 81.9139C36.3643 81.8493 36.1494 81.7637 35.9441 81.6584L35.729 81.5497L24.5628 75.8532C23.4529 75.2872 22.7023 74.2006 22.5657 72.9622C22.5456 72.7876 22.5383 72.6118 22.5437 72.4361C22.5437 72.347 22.5518 72.258 22.5622 72.1701C22.5726 72.0822 22.583 71.9932 22.5981 71.9041C22.6223 71.7712 22.6532 71.6396 22.6906 71.5098C22.7045 71.4658 22.7172 71.4219 22.7322 71.378C22.7611 71.2924 22.7935 71.2057 22.8294 71.1201C22.8652 71.0345 22.9045 70.9501 22.945 70.8668C22.9658 70.8275 22.9855 70.7882 23.0074 70.7512C23.0652 70.6466 23.1289 70.5455 23.1982 70.4482C23.2029 70.4406 23.2079 70.4333 23.2133 70.4262C23.2306 70.3996 23.2491 70.3742 23.2676 70.3488C23.8624 69.5466 24.7553 69.018 25.7446 68.8824C25.8082 68.8744 25.8718 68.8663 25.9354 68.8616C26.6243 68.8007 27.3164 68.9363 27.9314 69.2525L39.3115 75.0599C40.4201 75.6256 41.17 76.7106 41.3075 77.9475Z" fill="#FF9F8C"/>
<ellipse cx="38.73" cy="78.3626" rx="4.06243" ry="5.17836" transform="rotate(-83.71 38.73 78.3626)" fill="#FF9F8C"/>
<path d="M39.6527 82.4076C39.1977 82.4538 38.7391 82.4515 38.2846 82.4007C37.3817 82.3048 36.5102 82.0144 35.7302 81.5496L24.5628 75.8532C23.4529 75.2872 22.7023 74.2006 22.5657 72.9622C22.5456 72.7875 22.5383 72.6117 22.5437 72.436C22.5437 72.347 22.5518 72.2579 22.5622 72.17C22.5726 72.0821 22.583 71.9931 22.5981 71.9041C22.6223 71.7712 22.6532 71.6395 22.6906 71.5097C22.7045 71.4658 22.7172 71.4218 22.7322 71.3779C22.7611 71.2923 22.7935 71.2056 22.8294 71.12C22.8652 71.0344 22.9045 70.95 22.945 70.8668C22.9658 70.8275 22.9855 70.7881 23.0074 70.7511C23.0652 70.6466 23.1289 70.5454 23.1982 70.4482C23.2029 70.4406 23.2079 70.4332 23.2133 70.4262C23.2306 70.3996 23.2491 70.3741 23.2676 70.3487C23.8624 69.5466 24.7553 69.018 25.7446 68.8824C25.8082 68.8743 25.8718 68.8662 25.9354 68.8616L24.8554 70.2169C24.8149 70.2666 24.7767 70.3186 24.7397 70.3695C24.7212 70.3938 24.7039 70.4204 24.6854 70.447L24.6703 70.4678C23.9869 71.4871 23.8532 72.7789 24.3135 73.9166C24.7738 75.0542 25.7682 75.8896 26.9681 76.1469C26.8791 76.1631 26.7889 76.177 26.6998 76.1874H26.6617L34.117 79.9919L37.2046 81.5681L37.4197 81.678C37.6259 81.7825 37.8411 81.8684 38.0626 81.9347C38.147 81.959 38.2303 81.9798 38.3147 81.9983L38.2314 82.0133H38.2153L38.1424 82.0237C38.6283 82.2128 39.1355 82.3417 39.6527 82.4076Z" fill="#FFC3B5"/>
<path d="M39.3167 74.3337H39.2797L39.3398 74.343L39.3167 74.3337Z" fill="#FCB798"/>
<path d="M40.0455 73.4508C40.6218 73.265 41.2396 73.5814 41.4254 74.1576C41.6113 74.7338 41.2949 75.3516 40.7187 75.5375L37.986 76.419C37.4098 76.6049 36.792 76.2885 36.6061 75.7123C36.4203 75.1361 36.7367 74.5183 37.3129 74.3324L40.0455 73.4508Z" fill="#FF9F8C"/>
<path d="M45.7953 78.2698C46.3182 78.5749 46.4949 79.2462 46.1898 79.7692C45.8846 80.2921 45.2134 80.4687 44.6904 80.1636L40.78 77.8822C40.257 77.5771 40.0804 76.9058 40.3855 76.3829C40.6906 75.8599 41.3619 75.6833 41.8848 75.9884L45.7953 78.2698Z" fill="#FF9F8C"/>
<path d="M45.0326 80.2877C45.5556 80.5928 45.7322 81.264 45.4271 81.787C45.122 82.3099 44.4507 82.4866 43.9277 82.1814L40.0173 79.9C39.4943 79.5949 39.3177 78.9237 39.6228 78.4007C39.9279 77.8777 40.5992 77.7011 41.1221 78.0062L45.0326 80.2877Z" fill="#FF9F8C"/>
<path d="M42.1761 80.9117C42.6991 81.2168 42.8757 81.8881 42.5706 82.411C42.2655 82.934 41.5942 83.1106 41.0713 82.8055L37.1608 80.5241C36.6379 80.2189 36.4613 79.5477 36.7664 79.0247C37.0715 78.5018 37.7427 78.3252 38.2657 78.6303L42.1761 80.9117Z" fill="#FF9F8C"/>
<ellipse cx="38.3196" cy="77.8898" rx="2.03179" ry="2.58918" transform="rotate(-83.71 38.3196 77.8898)" fill="#FFC3B5"/>
<path d="M47.882 47.5815L45.2836 38.7131C45.174 38.3546 45.236 37.9655 45.4516 37.6588C45.6672 37.3521 46.0123 37.1621 46.3868 37.1439C49.1125 37.0547 51.5559 38.8137 52.3362 41.4269C53.1164 44.0401 52.0375 46.8509 49.7091 48.2707C49.3842 48.4732 48.9835 48.5127 48.6253 48.3775C48.2671 48.2424 47.9923 47.9481 47.882 47.5815Z" fill="#082A3C"/>
<path d="M49.7895 49.1404L49.7745 52.2095L49.7537 55.8776L41.7676 55.9342L41.7953 50.5373L41.8034 49.197L49.7895 49.1404Z" fill="#FF9F8C"/>
<path d="M50.579 53.7728C50.743 53.7693 50.9007 53.8356 51.013 53.9551C51.1252 54.0746 51.1814 54.2362 51.1676 54.3996L51.1214 54.9373L51.0427 55.8312C51.0163 56.1244 50.7739 56.3509 50.4796 56.3574L41.1266 56.5713C40.9629 56.5745 40.8054 56.5081 40.6934 56.3886C40.5814 56.2691 40.5254 56.1078 40.5392 55.9446L40.6629 54.5129C40.6893 54.2198 40.9318 53.9932 41.2261 53.9868L50.579 53.7728Z" fill="#FFDAB2"/>
<path d="M49.7906 49.1843L49.7975 53.0444C49.2903 53.3163 48.724 53.4593 48.1485 53.4607H46.6845C44.7297 53.4682 42.8999 52.5006 41.8057 50.8808V49.1947L49.7906 49.1843Z" fill="#FE8F77"/>
<path d="M48.3357 52.5145L46.8741 52.5186C43.6322 52.5276 40.9968 49.9069 40.9878 46.6651L40.9756 42.2893C40.9729 41.4417 41.3071 40.6278 41.9047 40.0267C42.5022 39.4255 43.3142 39.0865 44.1618 39.0841L48.888 39.0709C50.5121 39.0664 51.8324 40.3793 51.8369 42.0034L51.8564 48.9742C51.8618 50.924 50.2856 52.5091 48.3357 52.5145Z" fill="#FF9F8C"/>
<path d="M51.8302 42.0076L51.8499 48.9761C51.8526 49.9127 51.4832 50.8119 50.8228 51.476C50.1624 52.1401 49.2652 52.5146 48.3286 52.517H46.8681C46.127 52.5194 45.3921 52.3816 44.7021 52.1111C45.173 52.2314 45.657 52.2924 46.143 52.2927H47.6036C48.5401 52.2902 49.4373 51.9157 50.0977 51.2517C50.7581 50.5876 51.1276 49.6883 51.1248 48.7518L51.1051 41.7694C51.1021 40.6358 50.4474 39.6049 49.4226 39.1201C50.8162 39.3765 51.8285 40.5907 51.8302 42.0076Z" fill="#FFC3B5"/>
<path d="M49.5721 47.8442C49.5784 48.1015 49.4828 48.3508 49.3061 48.538C49.2841 48.5611 49.261 48.5831 49.2379 48.6039C49.0677 48.7527 48.8509 48.8373 48.625 48.8433H48.5857C48.0789 48.8573 47.6457 48.4809 47.5888 47.9771C47.5888 47.9506 47.5888 47.9228 47.5831 47.8962C47.5819 47.846 47.6006 47.7974 47.6351 47.7609C47.6692 47.7242 47.7168 47.7029 47.7669 47.7019L49.3778 47.6568C49.4286 47.6553 49.4778 47.6743 49.5144 47.7095C49.551 47.7448 49.5718 47.7934 49.5721 47.8442Z" fill="#962F4A"/>
<path d="M48.6007 48.6974C48.6019 48.7477 48.5984 48.7981 48.5903 48.8477H48.5845C48.078 48.8617 47.6452 48.4852 47.5889 47.9816C47.821 47.9069 48.0747 47.9458 48.2737 48.0866C48.4727 48.2274 48.5939 48.4537 48.6007 48.6974Z" fill="#E1617F"/>
<path d="M49.3404 47.6672C49.3404 47.8592 49.049 48.0211 48.6859 48.0315C48.3228 48.0419 48.0244 47.8962 48.0117 47.7054L49.3404 47.6672Z" fill="white"/>
<circle cx="46.8543" cy="45.3878" r="0.419773" fill="#541000"/>
<circle cx="50.6082" cy="45.3521" r="0.419773" fill="#541000"/>
<circle cx="42.185" cy="39.7575" r="2.52095" fill="#082A3C"/>
<circle cx="45.7777" cy="38.2912" r="3.7953" fill="#082A3C"/>
<circle cx="42.185" cy="39.7575" r="2.52095" fill="#082A3C"/>
<circle cx="45.7777" cy="38.2912" r="3.7953" fill="#082A3C"/>
<path d="M48.9245 36.1678C48.0297 35.4538 46.8605 35.1817 45.7424 35.4273C44.6242 35.6728 43.6766 36.4097 43.1633 37.4329C43.0593 37.6411 42.9741 37.8582 42.9089 38.0817C42.0217 38.1004 41.2098 38.5845 40.7714 39.356C40.333 40.1276 40.3327 41.0728 40.7707 41.8446C39.8623 41.2288 39.4566 40.0961 39.7675 39.0436C40.0785 37.9911 41.0346 37.2607 42.1318 37.2375C42.5406 35.8216 43.732 34.7704 45.1877 34.5412C46.6435 34.3119 48.1003 34.9461 48.9245 36.1678Z" fill="#011923"/>
<circle cx="50.3723" cy="37.8262" r="4.97483" fill="#082A3C"/>
<circle cx="50.3723" cy="37.8262" r="4.97483" fill="#082A3C"/>
<path d="M55.3469 37.8262C55.3477 39.2431 54.7439 40.5931 53.6873 41.5372C52.6306 42.4812 51.2214 42.9296 49.8135 42.7698C52.3377 42.4964 54.2506 40.3652 54.2506 37.8262C54.2506 35.2872 52.3377 33.156 49.8135 32.8826C51.2214 32.7228 52.6306 33.1712 53.6873 34.1152C54.7439 35.0593 55.3477 36.4092 55.3469 37.8262Z" fill="#0F4D68"/>
<path d="M40.1315 45.9557L39.9615 40.3379C39.9529 40.1107 40.0492 39.892 40.2228 39.7451C40.3964 39.5981 40.628 39.5391 40.8507 39.5851C42.4647 39.9534 43.629 41.3613 43.6879 43.0157C43.7467 44.6701 42.6854 46.1571 41.1017 46.6392C40.8797 46.7084 40.6382 46.6704 40.4481 46.5366C40.2581 46.4027 40.141 46.188 40.1315 45.9557Z" fill="#082A3C"/>
<path d="M39.9475 46.0319L40.3846 41.973C40.401 41.8086 40.4921 41.6609 40.6316 41.5724C40.7711 41.4839 40.9435 41.4645 41.0992 41.5197C42.2298 41.942 42.9328 43.0742 42.81 44.2748C42.6871 45.4755 41.7692 46.4418 40.5765 46.6263C40.409 46.654 40.238 46.6018 40.1146 46.4851C39.9911 46.3685 39.9293 46.2008 39.9475 46.0319Z" fill="#0F4D68"/>
<circle cx="41.3522" cy="46.083" r="1.83174" fill="#FF9F8C"/>
<path d="M40.7367 46.1246C40.7454 46.4536 40.9505 46.7452 41.2571 46.8647C41.3303 46.8914 41.412 46.8793 41.4745 46.8327C41.5369 46.7861 41.5717 46.7112 41.567 46.6334L41.5381 45.5707C41.5393 45.4875 41.4956 45.4101 41.4239 45.368C41.3521 45.3259 41.2632 45.3256 41.1912 45.3672C40.9046 45.5091 40.727 45.805 40.7367 46.1246Z" fill="#FB8265"/>
<path d="M82.9561 44.5032H90.0344C92.7206 44.5032 94.8982 46.6808 94.8982 49.367V69.5427H82.9561V44.5032H82.9561Z" fill="#011923"/>
<path d="M82.9561 44.5032H90.0344C92.7206 44.5032 94.8982 46.6808 94.8982 49.367V69.5427H82.9561V44.5032H82.9561Z" fill="#011923"/>
<path d="M94.8971 49.367V69.5427H89.9916V49.367C89.9916 46.6835 87.8183 44.507 85.1348 44.5032H90.0391C92.723 44.5064 94.8971 46.683 94.8971 49.367Z" fill="#082A3C"/>
<path d="M83.3171 67.718C83.3345 67.7458 83.353 67.7724 83.3715 67.799C83.0905 67.799 82.8141 67.799 82.54 67.7839C82.7968 67.7712 83.0535 67.7481 83.3171 67.718Z" fill="#0F4D68"/>
<path d="M85.1981 63.519C85.2 64.4625 84.7847 65.3586 84.0637 65.9671L80.4789 69.0015L77.8492 71.2253L73.8851 74.5788C72.532 75.6986 70.5297 75.521 69.3948 74.1805C68.26 72.84 68.4151 70.8359 69.7428 69.6861L79.9192 61.0721C80.8714 60.2655 82.2053 60.0851 83.3375 60.6098C84.4698 61.1345 85.1945 62.2688 85.1947 63.5167L85.1981 63.519Z" fill="#FFB2BF"/>
<path d="M80.4791 69.0015L77.8495 71.2253C77.2578 70.5599 76.9318 69.7 76.9336 68.8096V68.5367C76.9319 66.5308 77.7288 64.6068 79.1481 63.1895C79.2892 63.0484 79.4337 62.9142 79.5852 62.7859C79.1835 64.6027 79.361 66.4998 80.0929 68.2106C80.2108 68.4823 80.3404 68.7471 80.4791 69.0015Z" fill="#FF6D8D"/>
<path d="M85.199 63.5202C85.1994 63.6458 85.1917 63.7713 85.1759 63.896C85.0327 62.727 84.2601 61.7305 83.1636 61.3006C82.0671 60.8706 80.8232 61.0764 79.9235 61.8365L69.7472 70.4505C69.1254 70.9738 68.7273 71.7153 68.6348 72.5227C68.5046 71.4509 68.9227 70.3855 69.7472 69.6884L79.9235 61.0744C80.8762 60.2687 82.2098 60.089 83.3418 60.6138C84.4737 61.1386 85.1983 62.2725 85.199 63.5202Z" fill="#F9E0E5"/>
<path d="M79.8486 69.0247H89.8492V82.4192H79.8486V69.0247Z" fill="#0D9A73"/>
<path d="M89.8503 69.0247V71.7283C86.8312 73.5689 83.3832 74.5879 79.8486 74.6841V69.0247H89.8503Z" fill="#0B8962"/>
<path d="M84.4413 61.4502C84.3138 61.2997 84.1725 61.1615 84.0192 61.0374C85.126 62.3903 84.9439 64.3808 83.6098 65.5103L73.4335 74.1255C72.2559 75.1219 70.5353 75.1375 69.3398 74.1625C69.3514 74.1764 69.3607 74.1914 69.3734 74.2064C70.5174 75.5569 72.5394 75.7246 73.8903 74.5811L84.0666 65.9671C84.7154 65.4179 85.1194 64.6334 85.1896 63.7863C85.2599 62.9391 84.9907 62.0988 84.4413 61.4502Z" fill="#FF6D8D"/>
<path d="M74.981 71.9241C75.122 73.6886 73.806 75.2332 72.0416 75.3743C70.2771 75.5153 68.7325 74.1993 68.5914 72.4348L67.6387 60.5157C67.4977 58.7513 68.8137 57.2066 70.5781 57.0656C72.3425 56.9245 73.8872 58.2405 74.0283 60.005L74.981 71.9241Z" fill="#FFB2BF"/>
<path opacity="0.38" d="M71.2425 67.9829C71.2844 68.5071 70.8934 68.9661 70.3691 69.008C69.8448 69.0499 69.3859 68.6589 69.3439 68.1346L69.0681 64.6834C69.0262 64.1591 69.4172 63.7001 69.9415 63.6582C70.4657 63.6163 70.9247 64.0073 70.9666 64.5316L71.2425 67.9829Z" fill="#F9E0E5"/>
<path d="M96.9635 70.3671C98.024 71.7843 97.735 73.7929 96.3178 74.8534C94.9007 75.914 92.8921 75.6249 91.8315 74.2077L85.4301 65.6538C84.3695 64.2367 84.6586 62.2281 86.0758 61.1676C87.4929 60.107 89.5015 60.3961 90.562 61.8132L96.9635 70.3671Z" fill="#FFB2BF"/>
<path d="M94.3664 83.3771C93.8539 85.0714 92.065 86.0294 90.3708 85.5169C88.6766 85.0044 87.7186 83.2155 88.231 81.5213L91.3244 71.2949C91.8369 69.6006 93.6258 68.6427 95.32 69.1551C97.0143 69.6676 97.9723 71.4565 97.4598 73.1508L94.3664 83.3771Z" fill="#FFB2BF"/>
<ellipse cx="91.6455" cy="83.8894" rx="3.39056" ry="4.30065" transform="rotate(-33.18 91.6455 83.8894)" fill="#FFB2BF"/>
<path d="M90.0309 85.7544C89.9258 85.5939 89.8293 85.4279 89.7418 85.2571C89.1381 84.0822 89.0294 82.8102 89.3821 81.7879C89.4006 81.6989 89.4238 81.6099 89.4504 81.522L89.9129 79.9955L91.7146 74.0389L92.0615 72.8721L91.1942 71.7088L86.6565 65.6446C85.7102 64.3782 85.828 62.6111 86.934 61.4816C87.1774 61.2401 87.3481 60.9352 87.4267 60.6015L87.4336 60.5703C86.3392 60.7662 85.4244 61.515 85.0161 62.5491C84.6078 63.5832 84.7642 64.755 85.4296 65.6458L90.8403 72.8767L88.2234 81.5254C88.1968 81.6156 88.1737 81.7047 88.1563 81.7949C87.7539 82.9594 87.9551 84.4546 88.8039 85.7544C89.8586 87.3664 91.5793 88.1828 93.0352 87.8914C91.9204 87.6786 90.801 86.9281 90.0309 85.7544Z" fill="#FF6D8D"/>
<path d="M96.1938 80.9578C96.117 81.2118 95.8488 81.3554 95.5948 81.2786L88.3702 79.0933C88.1163 79.0164 87.9726 78.7482 88.0495 78.4942C88.1263 78.2402 88.3945 78.0966 88.6485 78.1735L95.873 80.3588C96.127 80.4356 96.2706 80.7038 96.1938 80.9578Z" fill="#FFA84D"/>
<path d="M96.0034 79.6561C95.9265 79.9101 95.6584 80.0537 95.4044 79.9769L89.176 78.0928C88.922 78.016 88.7784 77.7478 88.8552 77.4938C88.932 77.2398 89.2002 77.0962 89.4542 77.173L95.6826 79.057C95.9366 79.1339 96.0802 79.4021 96.0034 79.6561Z" fill="#FFECD9"/>
<path d="M72.067 75.3664C72.0582 75.367 72.0493 75.367 72.0404 75.3664C71.9537 75.3734 71.867 75.3757 71.7814 75.3757C70.1161 75.3703 68.7324 74.0902 68.5978 72.4303L67.6461 60.5113C67.5051 58.7467 68.8211 57.2019 70.5857 57.0606C70.7658 57.0456 70.9468 57.0456 71.1269 57.0606C69.3729 57.2132 68.0708 58.7528 68.2116 60.5078L69.1633 72.4269C69.2863 73.983 70.5125 75.2243 72.067 75.3664Z" fill="#F9E0E5"/>
<path d="M92.5558 67.7537V68.0266C92.5561 68.9944 92.1718 69.9227 91.4876 70.6072C90.8033 71.2917 89.8751 71.6762 88.9073 71.6762H81.0773C79.062 71.6756 77.4284 70.042 77.4277 68.0266V67.7537C77.4277 63.5762 80.8143 60.1897 84.9917 60.1897C89.1692 60.1897 92.5558 63.5762 92.5558 67.7537Z" fill="#0D9A73"/>
<path d="M77.3867 67.7539V68.028C77.3867 70.0427 79.0193 71.6763 81.034 71.6776H84.3251C80.9414 69.733 79.2095 65.8185 80.0464 62.0066C79.895 62.1338 79.7504 62.2691 79.6093 62.409C79.2944 62.7245 79.0077 63.067 78.7524 63.4324C77.8634 64.6981 77.3865 66.2072 77.3867 67.7539H77.3867Z" fill="#13B887"/>
<path d="M91.1964 63.4301C89.6778 65.046 87.599 66.0203 85.3855 66.1535C85.2097 66.165 85.0305 66.1708 84.8501 66.1708C84.7402 66.1708 84.6315 66.1708 84.5228 66.1639C82.317 66.0844 80.2239 65.1691 78.668 63.6036C80.021 61.5487 82.3476 60.0488 84.9912 60.0488C87.0808 60.0488 88.9715 61.0387 90.3395 62.4067C90.6551 62.7216 90.9419 63.0641 91.1964 63.4301Z" fill="#FFB2BF"/>
<path d="M85.3851 66.1533C85.2094 66.1649 85.0301 66.1707 84.8497 66.1707C84.7399 66.1707 84.6312 66.1707 84.5225 66.1637L84.6196 65.6121C84.6481 65.4527 84.7867 65.3367 84.9486 65.3367C85.1105 65.3367 85.2491 65.4527 85.2776 65.6121L85.3851 66.1533Z" fill="#FF6D8D"/>
<ellipse cx="71.5103" cy="59.5967" rx="3.39056" ry="4.30065" transform="rotate(-47.95 71.5103 59.5967)" fill="#FFB2BF"/>
<path d="M75.1251 58.9837C74.8555 58.5428 74.5237 58.1432 74.1398 57.7973C72.3751 56.2072 69.9293 56.0442 68.6747 57.4353C67.8652 58.3373 67.7495 59.6729 68.2549 60.9334C67.3749 59.4879 67.3483 57.7973 68.3185 56.7218C69.5732 55.3341 72.019 55.4937 73.7825 57.0838C74.3695 57.606 74.8288 58.256 75.1251 58.9837Z" fill="#F9E0E5"/>
<circle cx="89.4021" cy="47.1814" r="3.05058" fill="#FFA84D"/>
<circle cx="88.7973" cy="47.3063" r="2.80311" fill="#082A3C"/>
<path d="M84.1207 44.2385L85.4904 44.1701C87.8576 44.0518 89.8724 45.8749 89.9906 48.242L90.2297 53.027C90.3847 56.1309 87.9943 58.7727 84.8904 58.9278L84.4723 58.9487C81.3684 59.1038 78.7266 56.7133 78.5715 53.6094L78.4182 50.5407C78.2525 47.2238 80.807 44.4006 84.124 44.2349L84.1207 44.2385Z" fill="#082A3C"/>
<path d="M86.9956 57.2374L87.0292 58.2967L87.1009 60.584C87.1215 61.242 86.7896 61.8609 86.2302 62.2078C85.6707 62.5546 84.9687 62.5767 84.3886 62.2656C83.8085 61.9545 83.4384 61.3576 83.4177 60.6997L83.4096 60.4591L83.3114 57.3531C83.2889 56.5909 83.738 55.8936 84.4412 55.5988C84.5528 55.5506 84.669 55.5138 84.7881 55.4889C85.3197 55.3839 85.8706 55.5173 86.2954 55.8537C86.7202 56.1901 86.9761 56.6959 86.9956 57.2374Z" fill="#FFB2BF"/>
<path d="M86.9955 57.2374L87.0291 58.2967C86.1148 59.4211 84.8337 60.1875 83.4107 60.4615L83.3124 57.3554C83.2888 56.5927 83.7375 55.8943 84.4411 55.5988C84.5527 55.5506 84.6689 55.5138 84.788 55.4889C85.3196 55.3839 85.8705 55.5173 86.2953 55.8537C86.7201 56.1901 86.976 56.6959 86.9955 57.2374Z" fill="#F9A0B4"/>
<path d="M89.7415 48.8317L89.7345 52.8595C89.7282 56.2812 86.9498 59.0502 83.5281 59.0451C80.8893 59.04 78.7536 56.8976 78.7568 54.2587V50.8786C78.7568 50.8577 78.7568 50.8381 78.7568 50.8173C78.7568 50.7248 78.7568 50.6322 78.7661 50.5409C78.9497 47.1664 81.7182 44.5122 85.0974 44.4709H85.3865C86.5418 44.4728 87.6491 44.9335 88.4647 45.7517C89.2804 46.57 89.7375 47.6787 89.7357 48.834L89.7415 48.8317Z" fill="#FFB2BF"/>
<path d="M82.9151 58.9999C81.0398 58.3026 79.7968 56.5115 79.7998 54.5107V51.1306C79.7998 51.1098 79.7998 51.0901 79.7998 51.0693C79.7998 50.9768 79.7998 50.8843 79.8102 50.7929C79.9933 47.4188 82.7616 44.7648 86.1403 44.7241H86.4294C86.6015 44.7232 86.7734 44.7341 86.944 44.7565C86.7056 44.6631 86.459 44.5923 86.2074 44.5449C85.9366 44.4919 85.6612 44.4652 85.3852 44.4651H85.1921C85.162 44.4651 85.132 44.4651 85.1031 44.4651C81.7233 44.5071 78.9553 47.1633 78.7741 50.5385C78.7671 50.631 78.7637 50.7224 78.7637 50.8149V50.8773V54.2563C78.7614 56.6551 80.5372 58.6842 82.9151 58.9999Z" fill="#F9A0B4"/>
<path d="M90.757 51.6474L89.4434 49.2248C89.3167 48.9919 89.1513 48.7823 88.9542 48.6049L89.0918 48.5679C89.1404 48.5506 89.2317 47.8741 89.2294 47.829C89.2288 47.8175 89.2265 47.8062 89.2225 47.7955C88.7044 46.3487 87.6185 45.176 86.2158 44.5483C85.9445 44.4959 85.6688 44.4692 85.3925 44.4685H85.1034C81.7251 44.511 78.958 47.1649 78.7744 50.5384C79.9163 50.868 81.1331 50.8275 82.2506 50.4228L84.1008 49.9186C85.3875 49.5694 86.7455 50.1512 87.3803 51.3236C87.999 52.4664 89.4268 52.8914 90.5697 52.273C90.7938 52.1517 90.8776 51.872 90.757 51.6474Z" fill="#F9A0B4"/>
<path d="M86.9883 46.8291L87.6489 46.7961C89.5068 46.7039 91.0879 48.1346 91.1814 49.9924L91.2764 51.8946C91.2946 52.2589 91.0141 52.5689 90.6499 52.5871C89.7565 52.6317 88.882 52.3193 88.2191 51.7187C87.5562 51.118 87.1594 50.2785 87.116 49.385L86.9883 46.8291V46.8291Z" fill="#082A3C"/>
<circle cx="89.5039" cy="51.6926" r="1.94044" fill="#FFB2BF"/>
<path d="M89.6862 53.6237C89.2943 56.725 86.6544 59.0492 83.5284 59.0449C82.8502 59.0449 82.1799 58.8998 81.5625 58.6194C81.9812 58.7382 82.4144 58.7982 82.8496 58.7974C85.9033 58.7998 88.504 56.5779 88.9785 53.5613C88.9877 53.5011 88.997 53.4398 89.0039 53.3786C89.2551 53.3544 89.4993 53.2822 89.7232 53.1658C90.3459 52.8387 90.7432 52.2006 90.7619 51.4975C90.7806 50.7944 90.4178 50.1361 89.8134 49.7764C90.7773 49.933 91.4747 50.7816 91.4415 51.7576C91.4084 52.7336 90.6551 53.5329 89.6827 53.6237H89.6862Z" fill="#FDC3CD"/>
<path d="M89.8167 49.7764H89.7924L89.7404 49.7706V49.7382C89.7658 49.7486 89.7924 49.7613 89.8167 49.7764Z" fill="#F9E0E5"/>
<path d="M90.1544 51.5597C90.0807 51.2344 89.8191 50.9851 89.4906 50.9272C89.413 50.9168 89.3352 50.9451 89.2826 51.0031C89.2299 51.0611 89.2091 51.1412 89.2269 51.2174L89.4652 52.2686C89.4839 52.3486 89.5422 52.4134 89.6198 52.4406C89.6973 52.4678 89.7833 52.4535 89.8479 52.4027C90.1066 52.2062 90.2265 51.8765 90.1544 51.5597Z" fill="#F9A0B4"/>
<circle cx="80.3942" cy="51.6879" r="0.46256" fill="#473A82"/>
<circle cx="84.1364" cy="51.8637" r="0.46256" fill="#473A82"/>
<path d="M90.5174 48.2357L85.2736 49.6909C81.4944 50.7397 77.5806 48.5262 76.5318 44.747L81.7767 43.2915C85.5559 42.2427 89.4698 44.4562 90.5186 48.2354L90.5174 48.2357Z" fill="#082A3C"/>
<path d="M79.1569 48.5588C79.15 48.5519 79.1442 48.5438 79.1372 48.5357C78.1612 47.3793 78.7337 45.5938 80.193 45.1891L82.9776 44.4154C85.083 43.8305 87.3405 44.2482 89.0973 45.5475C87.5332 43.7003 85.1364 42.7764 82.7371 43.096C82.413 43.1391 82.0923 43.2048 81.7773 43.2926L76.5342 44.7462C76.9555 46.2755 77.8793 47.6185 79.1569 48.5588Z" fill="#0F4D68"/>
<rect x="92.2617" y="49.6851" width="1.15409" height="14.677" rx="0.577044" fill="#0F4D68"/>
<path d="M81.3187 53.5649C81.3115 53.8222 81.4068 54.0717 81.5836 54.2587C81.6055 54.2819 81.6287 54.3038 81.6518 54.3247C81.8221 54.4732 82.0388 54.5579 82.2647 54.564H82.3052C82.8115 54.5774 83.244 54.2012 83.3008 53.6979C83.3008 53.6713 83.3008 53.6447 83.3066 53.6169C83.3085 53.5669 83.2902 53.5181 83.2559 53.4816C83.2215 53.4451 83.174 53.4239 83.1239 53.4227L81.513 53.3776C81.4621 53.3757 81.4127 53.3946 81.376 53.4299C81.3394 53.4653 81.3187 53.514 81.3187 53.5649Z" fill="#962F4A"/>
<path d="M82.2919 54.4137C82.2907 54.464 82.2942 54.5144 82.3023 54.564C82.8091 54.5786 83.2422 54.2018 83.298 53.6979C83.0659 53.6232 82.8122 53.6621 82.6132 53.8029C82.4141 53.9437 82.293 54.17 82.2861 54.4137H82.2919Z" fill="#E1617F"/>
<path d="M81.5498 53.3787C81.5498 53.5695 81.8424 53.7314 82.2043 53.7418C82.5663 53.7522 82.8658 53.6065 82.8785 53.4157L81.5498 53.3787Z" fill="white"/>
<path d="M64.2978 80.2581H65.0021C65.1809 80.2581 65.3524 80.3291 65.4788 80.4555C65.6052 80.582 65.6763 80.7534 65.6763 80.9322V81.3243H63.626V80.9322C63.626 80.5608 63.9264 80.2593 64.2978 80.2581V80.2581Z" fill="#D7E2FF"/>
<path d="M62.2453 80.2581H62.9495C63.3219 80.2581 63.6237 80.5599 63.6237 80.9322V81.3243H61.5723V80.9322C61.5723 80.5603 61.8734 80.2587 62.2453 80.2581V80.2581Z" fill="#D7E2FF"/>
<path d="M60.1937 80.2581H60.898C61.0768 80.2581 61.2482 80.3291 61.3747 80.4555C61.5011 80.582 61.5721 80.7534 61.5721 80.9322V81.3243H59.5195V80.9322C59.5195 80.5599 59.8214 80.2581 60.1937 80.2581V80.2581Z" fill="#D7E2FF"/>
<path d="M58.1408 80.2581H58.845C59.2174 80.2581 59.5192 80.5599 59.5192 80.9322V81.3243H57.4678V80.9322C57.4678 80.5603 57.7689 80.2587 58.1408 80.2581V80.2581Z" fill="#D7E2FF"/>
<path d="M56.0902 80.2581H56.7944C57.1668 80.2581 57.4686 80.5599 57.4686 80.9322V81.3243H55.416V80.9322C55.416 80.5599 55.7179 80.2581 56.0902 80.2581V80.2581Z" fill="#D7E2FF"/>
<path d="M54.0375 80.2581H54.7417C55.114 80.2581 55.4159 80.5599 55.4159 80.9322V81.3243H53.3633V80.9322C53.3633 80.5599 53.6651 80.2581 54.0375 80.2581V80.2581Z" fill="#D7E2FF"/>
<path d="M51.9857 80.2581H52.69C53.0623 80.2581 53.3641 80.5599 53.3641 80.9322V81.3243H51.3115V80.9322C51.3115 80.5599 51.6134 80.2581 51.9857 80.2581V80.2581Z" fill="#D7E2FF"/>
<rect x="48.583" y="80.7461" width="23.4217" height="1.67215" rx="0.836077" fill="#4970DB"/>
<path d="M65.5537 82.4182H85.0969C85.9164 82.4191 86.6315 81.8623 86.8315 81.0675L90.6383 65.9384C90.7727 65.4039 90.6531 64.8373 90.3142 64.4028C89.9752 63.9683 89.4548 63.7144 88.9037 63.7146H71.656C70.8364 63.7147 70.1217 64.2717 69.9214 65.0664L65.5537 82.4182Z" fill="#5476EF"/>
<path d="M90.6377 65.9383L86.8285 81.0675C86.6283 81.8623 85.9135 82.4193 85.0939 82.4194H65.5508L65.9717 80.746H81.4143C82.2335 80.7461 82.9482 80.1897 83.1489 79.3954L86.9569 64.2616C87.0022 64.0814 87.0193 63.8954 87.0078 63.71H88.9031C89.4551 63.7098 89.9762 63.9645 90.3153 64.4C90.6543 64.8356 90.7733 65.4033 90.6377 65.9383Z" fill="#4970DB"/>
<circle cx="79.3191" cy="73.5647" r="0.978314" fill="#D7E2FF"/>
<path d="M80.6248 75.0288C80.2026 75.691 79.4192 76.0288 78.6479 75.8812C77.8765 75.7336 77.2732 75.1305 77.1252 74.3592C76.9773 73.5879 77.3147 72.8044 77.9767 72.3818C77.4931 73.1402 77.6017 74.1328 78.2379 74.7687C78.874 75.4046 79.8667 75.5127 80.6248 75.0288Z" fill="#D7E2FF"/>
</svg>
