<svg width="102" height="102" viewBox="0 0 102 102" fill="none" xmlns="http://www.w3.org/2000/svg">
<path d="M97.766 83.0381C99.5667 84.8407 100.167 87.5196 99.3084 89.9184C99.2239 90.1544 99.1258 90.3854 99.0145 90.6101C98.1749 92.3049 96.6482 93.5578 94.8222 94.0507C94.5595 94.1222 94.2923 94.1767 94.0225 94.2136C93.7224 94.255 93.4198 94.2757 93.1169 94.2756H10.6979C9.16425 94.2772 7.67861 93.741 6.49956 92.7602C6.34162 92.6303 6.19035 92.4927 6.04574 92.3474C5.96477 92.2664 5.8848 92.1834 5.80783 92.0975C5.70787 91.9885 5.61491 91.8766 5.52495 91.7606C5.24297 91.4037 4.99939 91.018 4.79824 90.6101C4.77125 90.5561 4.74526 90.5021 4.72027 90.4471C4.6403 90.2739 4.56833 90.0976 4.50436 89.9184C3.73472 87.7867 4.11779 85.4089 5.51795 83.6269C5.60791 83.5109 5.70288 83.399 5.80084 83.29C7.04765 81.9006 8.82707 81.1078 10.6939 81.1099H19.2764C19.3844 81.1099 19.4914 81.1059 19.5973 81.0979C19.8693 81.0784 20.1387 81.0329 20.402 80.9619C20.6317 80.9005 20.8558 80.8196 21.0717 80.72C21.5408 80.5049 21.968 80.208 22.3332 79.8434C23.1464 79.0352 23.6037 77.9361 23.6037 76.7896C23.604 76.6259 23.5947 76.4624 23.5757 76.2998C23.3742 74.5378 22.118 73.0772 20.406 72.6143C20.1427 72.5435 19.8733 72.4979 19.6013 72.4783C19.4954 72.4703 19.3884 72.4663 19.2804 72.4663H17.933C17.1826 72.467 16.4345 72.3832 15.7029 72.2164H15.6959L15.6449 72.2044C15.5889 72.1924 15.5339 72.1785 15.479 72.1645L15.397 72.1435C15.325 72.1245 15.2531 72.1055 15.1821 72.0845C15.1111 72.0635 15.0621 72.0495 15.0032 72.0305C14.5544 71.894 14.1161 71.7253 13.6917 71.5257C13.5977 71.4817 13.5038 71.4367 13.4118 71.3888C13.2599 71.3118 13.1119 71.2318 12.964 71.1469C12.6874 70.9889 12.4209 70.8177 12.1643 70.6331C11.9484 70.4801 11.7395 70.3182 11.5365 70.1493C11.3046 69.9567 11.0821 69.7534 10.8688 69.5395C9.122 67.8009 8.08201 65.4762 7.94998 63.0151C7.94598 62.9412 7.94298 62.8672 7.94098 62.7932C7.94098 62.6843 7.93498 62.5743 7.93498 62.4653C7.93498 62.4174 7.93498 62.3654 7.93498 62.3224C7.9404 61.9212 7.96977 61.5206 8.02295 61.1229C8.39332 58.3739 9.89124 55.9032 12.1573 54.3036C12.4025 54.129 12.6554 53.9661 12.916 53.8148C12.931 53.8058 12.946 53.7968 12.962 53.7888C13.4102 53.5304 13.8781 53.3078 14.3614 53.1231C14.5713 53.0421 14.7842 52.9691 15.0002 52.9022C15.2161 52.8352 15.459 52.7712 15.6929 52.7182C16.4267 52.5503 17.1772 52.4658 17.93 52.4663H25.293C26.207 52.4658 27.0982 52.1819 27.844 51.6537C28.0456 51.51 28.2348 51.3499 28.4098 51.1749C29.1743 50.4116 29.6312 49.3936 29.6933 48.315C29.6983 48.23 29.7013 48.1441 29.7013 48.0571C29.7009 46.719 29.0931 45.4534 28.0489 44.6165C27.982 44.5625 27.914 44.5165 27.844 44.4625C27.593 44.2829 27.3232 44.1311 27.0393 44.0097C26.9704 43.9787 26.9004 43.9508 26.8294 43.9248C26.338 43.7414 25.8176 43.6479 25.293 43.6489H11.8434C10.6008 43.652 9.36765 43.4333 8.20188 43.0031C7.79091 42.851 7.39023 42.6723 7.00236 42.4683C6.83043 42.3784 6.66149 42.2841 6.49556 42.1855C6.25899 42.0448 6.02841 41.8949 5.80384 41.7356C5.70388 41.6677 5.61391 41.5987 5.52095 41.5277C5.24273 41.3156 4.97581 41.089 4.72127 40.849C4.63131 40.766 4.54334 40.6811 4.45638 40.5941C3.03556 39.1771 2.05369 37.3803 1.62851 35.4192C1.61651 35.3665 1.60552 35.3135 1.59552 35.2602C1.55953 35.0843 1.52855 34.9074 1.50256 34.7274C1.42857 34.221 1.39149 33.7099 1.3916 33.1981C1.3916 33.1581 1.3916 33.1181 1.3916 33.0781C1.41502 30.6964 2.25478 28.3949 3.77065 26.5577C3.86461 26.4438 3.96157 26.3308 4.06053 26.2208C4.18648 26.0789 4.31743 25.941 4.45138 25.807C4.53834 25.72 4.62631 25.6351 4.71627 25.5521L4.74226 25.5281C4.81723 25.4581 4.8922 25.3902 4.96917 25.3232C5.14777 25.1666 5.33169 25.0167 5.52095 24.8734C5.61391 24.8024 5.70787 24.7334 5.80384 24.6655C5.8998 24.5975 5.97777 24.5445 6.06573 24.4855C6.20668 24.3916 6.34962 24.3006 6.49556 24.2146L6.56653 24.1727C6.70947 24.0887 6.85542 24.0077 7.00236 23.9318C7.39005 23.7277 7.79076 23.5494 8.20188 23.398C9.36693 22.9644 10.6003 22.7433 11.8434 22.7452C11.9489 22.7451 12.0544 22.7395 12.1593 22.7282C12.4345 22.6984 12.7039 22.6287 12.959 22.5213C13.6545 22.2336 14.2118 21.6881 14.5144 20.9989C14.6328 20.7286 14.709 20.4417 14.7403 20.1483C14.7507 20.0563 14.756 19.9639 14.7563 19.8714C14.7563 19.8584 14.7563 19.8454 14.7563 19.8324V17.7522C14.7558 17.2706 14.8251 16.7915 14.9622 16.3298C14.9752 16.2868 14.9882 16.2438 15.0022 16.2019C15.6206 14.3034 17.3117 12.9568 19.3004 12.7792C19.4004 12.7702 19.5004 12.7642 19.6003 12.7612H19.7493H49.0375C49.1485 12.7612 49.2575 12.7612 49.3664 12.7722C49.6375 12.7889 49.9066 12.8284 50.1711 12.8902C51.0426 13.0933 51.8433 13.5273 52.4892 14.1467C52.5161 14.1717 52.5421 14.1977 52.5681 14.2236C53.4647 15.1183 53.9863 16.3213 54.0265 17.5873V17.7542C54.0265 17.7542 54.0265 17.8542 54.0265 17.8962C54.0332 18.1308 54.0566 18.3646 54.0965 18.5959C54.1045 18.6449 54.1145 18.6959 54.1235 18.7428C54.1425 18.8358 54.1645 18.9288 54.1875 19.0197C54.2643 19.3121 54.3677 19.5968 54.4964 19.8704C54.5403 19.9643 54.5873 20.0573 54.6363 20.1473C54.6593 20.1903 54.6833 20.2322 54.7083 20.2742C54.858 20.5305 55.0307 20.7727 55.2241 20.9979C55.3666 21.1647 55.5202 21.3217 55.6839 21.4677C55.7569 21.5337 55.8318 21.5967 55.9078 21.6587C56.1865 21.8795 56.4881 22.0699 56.8074 22.2264C56.8704 22.2584 56.9344 22.2884 56.9994 22.3174C57.6364 22.6 58.3257 22.7454 59.0225 22.7442H73.6317C73.9186 22.7442 74.2015 22.7592 74.4814 22.7872C75.4917 22.8901 76.4745 23.1784 77.3802 23.6379C78.0117 23.9589 78.5999 24.359 79.1305 24.8284C79.1785 24.8714 79.2255 24.9134 79.2724 24.9573C79.3194 25.0013 79.3514 25.0303 79.3894 25.0683C79.4764 25.1513 79.5603 25.2352 79.6403 25.3222C79.6723 25.3532 79.7013 25.3852 79.7303 25.4222C79.7343 25.4247 79.7377 25.4281 79.7403 25.4322C79.7712 25.4651 79.8012 25.4981 79.8292 25.5321C79.8572 25.5661 79.9012 25.6121 79.9352 25.6531C79.9852 25.71 80.0351 25.768 80.0811 25.827C80.1171 25.87 80.1521 25.914 80.1811 25.9589C80.2101 26.0039 80.248 26.0449 80.281 26.0889C80.314 26.1329 80.349 26.1789 80.381 26.2248C80.3957 26.2435 80.4097 26.2625 80.423 26.2818C80.488 26.3738 80.5509 26.4667 80.6119 26.5617C80.6519 26.6247 80.6919 26.6877 80.7309 26.7516C80.7988 26.8636 80.8638 26.9775 80.9308 27.0925C81.0207 27.2591 81.1054 27.429 81.1847 27.6023C81.256 27.7562 81.3226 27.9128 81.3846 28.0721C81.4921 28.3499 81.5839 28.6336 81.6595 28.9218C81.7015 29.0767 81.7385 29.2336 81.7704 29.3916C81.8281 29.6726 81.8704 29.9566 81.8974 30.2422C81.9243 30.513 81.9377 30.7849 81.9374 31.0569V37.8852C81.9368 39.33 82.5107 40.7158 83.5325 41.7372C84.5544 42.7587 85.9404 43.3321 87.3852 43.331H95.6949C96.5148 43.3314 97.3214 43.5376 98.0409 43.9308C98.3907 44.1216 98.7162 44.3539 99.0105 44.6225C99.0655 44.6725 99.1195 44.7224 99.1715 44.7764C99.2936 44.8987 99.4094 45.0271 99.5183 45.1613C100.976 46.965 100.976 49.5421 99.5183 51.3458C99.4094 51.4799 99.2936 51.6084 99.1715 51.7306C98.4069 52.4978 97.4096 52.99 96.3356 53.1301C96.1232 53.1582 95.9091 53.1722 95.6949 53.1721C95.4009 53.1722 95.1085 53.2139 94.8262 53.296C94.5431 53.3794 94.2737 53.5037 94.0265 53.6649C93.9496 53.7138 93.8756 53.7648 93.8036 53.8218C93.0517 54.4066 92.6122 55.3062 92.6131 56.2588V66.1279C92.6156 67.5953 92.1066 69.0176 91.1737 70.1503C91.0424 70.3112 90.9029 70.4654 90.7558 70.6121C90.4665 70.9016 90.1494 71.1621 89.8092 71.3898C89.7403 71.4378 89.6703 71.4827 89.5993 71.5267C89.4994 71.5887 89.3994 71.6477 89.2924 71.7036L89.1465 71.7806C89.1342 71.7877 89.1216 71.7941 89.1085 71.7996C89.0595 71.8246 89.0085 71.8486 88.9606 71.8716C88.9552 71.8755 88.9491 71.8782 88.9426 71.8796C88.8876 71.9056 88.8326 71.9305 88.7776 71.9535C88.7227 71.9765 88.6597 72.0035 88.6007 72.0265C88.4166 72.1005 88.2287 72.1649 88.0379 72.2194C87.8248 72.2815 87.6086 72.3322 87.3902 72.3714C87.1241 72.4182 86.8554 72.4482 86.5855 72.4613C86.4856 72.4663 86.3766 72.4693 86.2716 72.4693C84.0726 72.4683 82.223 74.1179 81.9734 76.3028C81.9544 76.4654 81.9451 76.6289 81.9454 76.7926C81.9451 77.9395 82.4006 79.0394 83.2117 79.8503C84.0227 80.6611 85.1228 81.1164 86.2696 81.1159H93.1189C93.4219 81.1156 93.7245 81.1366 94.0245 81.1788C94.2943 81.2155 94.5614 81.2696 94.8242 81.3408C94.9132 81.3648 95.0012 81.3908 95.0891 81.4178C96.0988 81.7346 97.0171 82.2904 97.766 83.0381V83.0381Z" fill="#F3F4FE"/>
<path d="M5.51745 24.8735V41.5229C5.23924 41.3107 4.97231 41.0842 4.71777 40.8441V25.5503L4.74376 25.5263C4.81873 25.4563 4.8937 25.3883 4.97067 25.3214C5.14927 25.1661 5.33153 25.0168 5.51745 24.8735Z" fill="#EFF1FD"/>
<path d="M4.71789 84.9404C4.9319 84.4727 5.20032 84.0318 5.51757 83.627V91.7607C5.23559 91.4038 4.99201 91.0181 4.79086 90.6102C4.76387 90.5562 4.73788 90.5022 4.71289 90.4472L4.71789 84.9404Z" fill="#EFF1FD"/>
<path d="M12.9637 22.5215V43.65H12.1641V22.7284C12.4392 22.6986 12.7086 22.6289 12.9637 22.5215V22.5215Z" fill="#EFF1FD"/>
<path d="M12.9148 53.8158C12.9298 53.8068 12.9448 53.7978 12.9608 53.7898V71.1419C12.6843 70.9839 12.4177 70.8127 12.1611 70.6281V54.3046C12.405 54.1293 12.6563 53.9664 12.9148 53.8158Z" fill="#EFF1FD"/>
<path d="M12.1592 81.1099H12.9639V94.2756H12.1592V81.1099Z" fill="#EFF1FD"/>
<path d="M20.4053 12.7593V43.6469H19.6006V12.7593H19.7495H20.4053Z" fill="#EFF1FD"/>
<path d="M19.6006 52.4673H20.4053V72.6112C20.142 72.5404 19.8725 72.4949 19.6006 72.4753L19.6006 52.4673Z" fill="#EFF1FD"/>
<path d="M19.6006 81.0979C19.8725 81.0784 20.142 81.0329 20.4053 80.9619V94.2756H19.6006V81.0979Z" fill="#EFF1FD"/>
<path d="M27.8467 12.7593V44.4636C27.5956 44.284 27.3258 44.1322 27.042 44.0108V12.7593L27.8467 12.7593Z" fill="#EFF1FD"/>
<path d="M27.042 52.1066C27.3254 51.9848 27.5951 51.8333 27.8467 51.6548V94.2757H27.042V52.1066Z" fill="#EFF1FD"/>
<path d="M34.4844 12.7593H35.2891V94.2757H34.4844V12.7593Z" fill="#EFF1FD"/>
<path d="M41.9258 12.7593H42.7305V94.2757H41.9258V12.7593Z" fill="#EFF1FD"/>
<path d="M50.1719 12.8882V94.2756H49.3672V12.7703C49.6382 12.787 49.9074 12.8264 50.1719 12.8882Z" fill="#EFF1FD"/>
<path d="M57.6141 22.5434V94.2757H56.8145V22.2275C56.8774 22.2595 56.9414 22.2895 57.0064 22.3185C57.2038 22.4067 57.4068 22.4819 57.6141 22.5434Z" fill="#EFF1FD"/>
<path d="M64.251 22.7454H65.0557V94.2757H64.251V22.7454Z" fill="#EFF1FD"/>
<path d="M71.6924 22.7454H72.4971V94.2757H71.6924V22.7454Z" fill="#EFF1FD"/>
<path d="M79.9384 25.649V94.2756H79.1387V24.8293C79.1867 24.8723 79.2336 24.9143 79.2806 24.9583C79.3276 25.0023 79.3596 25.0313 79.3976 25.0692C79.4845 25.1522 79.5685 25.2362 79.6485 25.3231C79.6805 25.3541 79.7094 25.3861 79.7384 25.4231C79.7425 25.4256 79.7459 25.429 79.7484 25.4331C79.7794 25.4661 79.8094 25.4991 79.8374 25.5331C79.8654 25.5671 79.9044 25.61 79.9384 25.649V25.649Z" fill="#EFF1FD"/>
<path d="M87.3848 43.3311V72.3654C87.1187 72.4122 86.8499 72.4423 86.5801 72.4554V43.2671C86.8464 43.3082 87.1153 43.3296 87.3848 43.3311V43.3311Z" fill="#EFF1FD"/>
<path d="M86.5762 81.1099H87.3808V94.2756H86.5762V81.1099Z" fill="#EFF1FD"/>
<path d="M94.8221 43.3311V53.2901C94.5391 53.3735 94.2697 53.4977 94.0225 53.6589V43.3311L94.8221 43.3311Z" fill="#EFF1FD"/>
<path d="M94.8221 81.3348V94.0507C94.5594 94.1222 94.2923 94.1767 94.0225 94.2136V81.1729C94.2922 81.2095 94.5594 81.2636 94.8221 81.3348V81.3348Z" fill="#EFF1FD"/>
<rect x="16.2637" y="96.0759" width="7.40304" height="1.7603" rx="0.880148" transform="rotate(-180 16.2637 96.0759)" fill="#7986BF"/>
<rect x="97.9414" y="96.0759" width="80.9616" height="1.7603" rx="0.880148" transform="rotate(-180 97.9414 96.0759)" fill="#7986BF"/>
<path d="M22.2373 18.3501H26.8455C26.9685 18.3493 27.0868 18.3978 27.174 18.4847C27.2611 18.5717 27.3098 18.6898 27.3093 18.8129V29.8525H22.2373V18.3501Z" fill="#6675AD"/>
<path d="M21.9111 18.3501H26.5193V29.8525H21.4463V18.8129C21.4463 18.6907 21.4948 18.5735 21.5813 18.4871C21.6677 18.4006 21.7849 18.3521 21.9071 18.3521L21.9111 18.3501Z" fill="#7986BF"/>
<circle cx="23.9118" cy="21.9016" r="1.21751" fill="#6675AD"/>
<circle cx="23.9112" cy="21.9017" r="0.552779" fill="#F3F4FE"/>
<circle cx="23.9118" cy="27.5564" r="1.97921" fill="#6675AD"/>
<circle cx="23.9113" cy="27.5563" r="0.897641" fill="#F3F4FE"/>
<path d="M32.1709 18.3501H36.7791C37.0336 18.3501 37.2399 18.5564 37.2399 18.8109V29.8525H32.1709V18.3501Z" fill="#6675AD"/>
<path d="M31.8417 18.3501H36.4498V29.8525H31.3809V18.8129C31.3803 18.6904 31.4286 18.5726 31.5151 18.4858C31.6016 18.3989 31.7191 18.3501 31.8417 18.3501V18.3501Z" fill="#7986BF"/>
<circle cx="33.8454" cy="21.9016" r="1.21751" fill="#6675AD"/>
<circle cx="33.8457" cy="21.9017" r="0.552779" fill="#F3F4FE"/>
<circle cx="33.8454" cy="27.5564" r="1.97921" fill="#6675AD"/>
<circle cx="33.8459" cy="27.5563" r="0.897641" fill="#F3F4FE"/>
<path d="M14.3291 32.1586H44.2701L42.2989 29.8525H16.3013L14.3291 32.1586Z" fill="#D2D6FA"/>
<path d="M38.6627 32.1577V35.2525L36.5615 36.7309V32.1577H38.6627Z" fill="#D2D6FA"/>
<path d="M22.5484 32.1577V36.7309L20.4473 35.2525V32.1577H22.5484Z" fill="#D2D6FA"/>
<path d="M20.4482 32.1575H22.5494V33.1141H20.4482V32.1575Z" fill="#969ECC"/>
<path d="M36.5615 32.1575H38.6627V33.1141H36.5615V32.1575Z" fill="#969ECC"/>
<path d="M65.9902 31.6917H77.3967V44.5005H65.9902V31.6917Z" fill="#D2D6FA"/>
<path d="M66.9883 32.8123H76.3985V43.379H66.9883V32.8123Z" fill="#F3F4FE"/>
<path d="M69.7779 36.2639L72.3019 40.9211L67.8057 41.2199L69.7779 36.2639Z" fill="#D2D6FA"/>
<path d="M75.2909 34.0359L73.5316 37.2216L71.6924 34.7306L75.2909 34.0359Z" fill="#D2D6FA"/>
<path d="M75.0144 38.7419L74.6455 40.9411L73.0762 39.8755L75.0144 38.7419Z" fill="#D2D6FA"/>
<circle cx="53.6269" cy="30.674" r="2.66693" fill="#332D52"/>
<path d="M50.0634 40.7677C51.462 39.6938 53.4663 39.957 54.5402 41.3555V41.3555C55.6141 42.7541 55.3509 44.7584 53.9524 45.8323L45.8442 52.0584C44.4457 53.1323 42.4413 52.8692 41.3674 51.4706V51.4706C40.2935 50.0721 40.5567 48.0678 41.9552 46.9939L50.0634 40.7677Z" fill="#FAEEDE"/>
<circle cx="43.91" cy="49.2926" r="3.42663" fill="#F2E6D7"/>
<path d="M35.9587 40.3358C35.2798 39.0477 35.7737 37.4531 37.0619 36.7742V36.7742C38.35 36.0954 39.9445 36.5893 40.6234 37.8774L45.9084 47.9054C46.5872 49.1936 46.0933 50.7881 44.8052 51.467V51.467C43.5171 52.1459 41.9225 51.652 41.2436 50.3638L35.9587 40.3358Z" fill="#EF948C"/>
<path d="M39.1376 36.394C40.4607 36.9681 41.0677 38.5061 40.4936 39.8292V39.8292C39.9194 41.1522 38.3814 41.7593 37.0583 41.1851L34.9621 40.2754C33.6391 39.7012 33.032 38.1632 33.6062 36.8402V36.8402C34.1804 35.5171 35.7184 34.9101 37.0414 35.4842L39.1376 36.394Z" fill="#EF948C"/>
<path d="M38.6745 36.193C39.1531 36.4007 39.3726 36.9571 39.165 37.4356V37.4356C38.9573 37.9142 38.4009 38.1338 37.9224 37.9261L33.0707 35.8206C32.5921 35.6129 32.3725 35.0565 32.5802 34.578V34.578C32.7879 34.0994 33.3442 33.8798 33.8228 34.0875L38.6745 36.193Z" fill="#EF948C"/>
<path d="M40.0547 36.6935C40.3416 37.1265 40.2232 37.7101 39.7902 37.9971V37.9971C39.3572 38.284 38.7735 38.1656 38.4866 37.7326L36.8686 35.2909C36.5817 34.8579 36.7001 34.2742 37.1331 33.9873V33.9873C37.5661 33.7004 38.1497 33.8188 38.4367 34.2518L40.0547 36.6935Z" fill="#EA8681"/>
<circle cx="38.4833" cy="37.8532" r="1.86126" fill="#EA8681"/>
<path d="M50.0634 40.7677C51.462 39.6938 53.4663 39.957 54.5402 41.3555V41.3555C55.6141 42.7541 55.3509 44.7584 53.9524 45.8323L45.8442 52.0584C44.4457 53.1323 42.4413 52.8692 41.3674 51.4706V51.4706C40.2935 50.0721 40.5567 48.0678 41.9552 46.9939L50.0634 40.7677Z" fill="#F2E6D7"/>
<circle cx="43.91" cy="49.2926" r="3.42663" fill="#FAEEDE"/>
<path d="M35.9597 40.3355C35.2808 39.0474 35.7747 37.4528 37.0628 36.774V36.774C38.351 36.0951 39.9455 36.589 40.6244 37.8771L45.9094 47.9052C46.5882 49.1933 46.0943 50.7879 44.8062 51.4668V51.4668C43.5181 52.1456 41.9235 51.6517 41.2446 50.3636L35.9597 40.3355Z" fill="#EF948C"/>
<path d="M39.1376 36.394C40.4607 36.9681 41.0677 38.5061 40.4936 39.8292V39.8292C39.9194 41.1522 38.3814 41.7593 37.0583 41.1851L34.9621 40.2754C33.6391 39.7012 33.032 38.1632 33.6062 36.8402V36.8402C34.1804 35.5171 35.7184 34.9101 37.0414 35.4842L39.1376 36.394Z" fill="#EF948C"/>
<path d="M33.6069 36.8376C33.7004 36.6225 33.8221 36.4208 33.9687 36.2378C33.5823 37.507 34.211 38.8639 35.4291 39.3895L35.684 39.5005L36.6766 39.9313L37.3993 41.3038L41.7096 49.4835C42.1247 50.2698 42.908 50.794 43.7932 50.878C44.6783 50.962 45.5462 50.5945 46.1019 49.9003C45.7908 50.9228 44.8933 51.6564 43.8293 51.7578C42.7654 51.8592 41.7455 51.3084 41.2468 50.3631L36.2138 40.811L34.9653 40.2692C34.3298 39.9946 33.8295 39.4787 33.5747 38.835C33.3199 38.1913 33.3314 37.4727 33.6069 36.8376V36.8376Z" fill="#EA8681"/>
<path d="M38.6745 36.1928C39.1531 36.4005 39.3726 36.9568 39.165 37.4354V37.4354C38.9573 37.914 38.4009 38.1336 37.9224 37.9259L33.0707 35.8203C32.5921 35.6126 32.3725 35.0563 32.5802 34.5777V34.5777C32.7879 34.0991 33.3442 33.8795 33.8228 34.0872L38.6745 36.1928Z" fill="#EF948C"/>
<path d="M40.0547 36.6935C40.3416 37.1265 40.2232 37.7101 39.7902 37.9971V37.9971C39.3572 38.284 38.7735 38.1656 38.4866 37.7326L36.8686 35.2909C36.5817 34.8579 36.7001 34.2742 37.1331 33.9873V33.9873C37.5661 33.7004 38.1497 33.8188 38.4367 34.2518L40.0547 36.6935Z" fill="#EF948C"/>
<circle cx="38.4833" cy="37.8532" r="1.86126" fill="#EF948C"/>
<circle cx="53.8058" cy="44.1527" r="5.004" fill="#F2E6D7"/>
<path d="M59.9039 66.7512C55.7372 66.8457 52.2827 63.5446 52.1882 59.3778L51.9311 48.0503C51.8366 43.8836 55.1377 40.4291 59.3044 40.3345V40.3345C63.4712 40.24 66.9256 43.5411 67.0202 47.7079L67.2772 59.0354C67.3718 63.2021 64.0706 66.6566 59.9039 66.7512V66.7512Z" fill="#FAEEDE"/>
<path d="M49.7609 43.9416C49.6992 40.8555 52.1509 38.3038 55.2369 38.2421L63.6466 38.0739C66.7326 38.0121 69.2844 40.4638 69.3461 43.5499C69.4479 48.6416 65.4029 52.8517 60.3112 52.9536L59.1636 52.9765C54.0723 53.0778 49.8628 49.0329 49.7609 43.9416V43.9416Z" fill="#FAEEDE"/>
<path d="M60.1527 52.8453H60.1617C65.252 52.7295 69.2847 48.5093 69.1691 43.419C69.0992 40.3338 66.5416 37.8894 63.4564 37.9592L55.0487 38.1501C54.6646 38.1586 54.2824 38.2068 53.9082 38.2941L61.979 38.1102H62.1089C65.1441 38.1115 67.6232 40.5356 67.6927 43.57C67.7952 48.0928 64.6012 52.022 60.1527 52.8453V52.8453Z" fill="#FFF7EE"/>
<path d="M56.4324 34.0687L56.5403 38.8308C56.5714 40.3145 57.7843 41.5003 59.2682 41.4978H59.3302C60.0541 41.4813 60.7418 41.1776 61.2416 40.6538C61.7415 40.1299 62.0126 39.4288 61.9952 38.7049L61.9592 37.0735L61.8872 33.9438C61.854 32.4611 60.6424 31.2765 59.1593 31.2769H59.0963C57.59 31.3129 56.3977 32.5624 56.4324 34.0687V34.0687Z" fill="#EF948C"/>
<path d="M43.5151 67.124C41.1498 67.1777 39.1889 65.3038 39.1352 62.9385V62.9385C39.0816 60.5732 40.9555 58.6123 43.3207 58.5586L62.9728 58.1127C65.3381 58.059 67.299 59.9329 67.3527 62.2982V62.2982C67.4064 64.6634 65.5324 66.6244 63.1672 66.678L43.5151 67.124Z" fill="#332D52"/>
<path d="M58.8096 62.7042V88.285H67.3781V62.7042C67.3781 60.3381 65.46 58.4199 63.0939 58.4199C60.7277 58.4199 58.8096 60.3381 58.8096 62.7042Z" fill="#666DA2"/>
<path d="M58.8096 62.7043V88.2851H61.0377V66.5937C61.038 65.0808 61.836 63.6801 63.1374 62.9085C64.4387 62.1369 66.0506 62.1087 67.3781 62.8342V62.7003C67.3781 60.3342 65.46 58.416 63.0939 58.416C60.7277 58.416 58.8096 60.3342 58.8096 62.7003L58.8096 62.7043Z" fill="#555A8B"/>
<path d="M58.8096 84.5986V88.2832H67.3781V85.9441L58.8096 84.5986Z" fill="#141334"/>
<path d="M30.4785 85.4131L38.1165 88.4749L38.9791 86.2388L47.3907 64.4475C48.2426 62.2393 47.143 59.7586 44.9347 58.9067C42.7265 58.0549 40.2458 59.1545 39.3939 61.3628L31.5121 81.7926L30.4815 84.4585L30.4785 85.4131Z" fill="#332D52"/>
<path d="M35.6426 91.9226L29.6474 89.6081L30.9154 86.3237L36.9106 88.6383L35.6426 91.9226Z" fill="#EA8681"/>
<path d="M66.3076 92.2405H59.8812V88.9498H66.3076V92.2405Z" fill="#EF948C"/>
<path d="M56.4325 34.0688L56.5404 38.8309C56.5457 39.0811 56.5854 39.3293 56.6584 39.5686H56.8583C58.8528 39.5697 60.7354 38.6469 61.9562 37.0696L61.8843 33.9399C61.8511 32.4572 60.6395 31.2726 59.1564 31.2729H59.0964C58.3723 31.2902 57.6848 31.5946 57.1851 32.1189C56.6855 32.6433 56.4147 33.3448 56.4325 34.0688V34.0688Z" fill="#EA8681"/>
<path d="M51.6992 31.8377C51.6993 35.2635 54.3762 38.0922 57.7968 38.2811C57.9117 38.2871 58.0267 38.2901 58.1436 38.2901C60.4678 38.319 62.6279 37.0956 63.7985 35.0875C64.969 33.0794 64.969 30.5969 63.7985 28.5888C62.6279 26.5807 60.4678 25.3573 58.1436 25.3862C58.0267 25.3862 57.9117 25.3862 57.7968 25.3952C54.3764 25.5836 51.6993 28.4121 51.6992 31.8377V31.8377Z" fill="#EF948C"/>
<path d="M55.4893 33.5789C55.4897 33.961 55.6422 34.3271 55.9131 34.5965C55.9461 34.6295 55.9811 34.6605 56.0131 34.6895C56.2712 34.902 56.5954 35.0176 56.9297 35.0164H56.9887C57.7379 35.0141 58.3603 34.4378 58.4201 33.6909C58.4201 33.6509 58.4201 33.6109 58.4201 33.5709C58.4208 33.496 58.3912 33.4239 58.3382 33.371C58.2849 33.3186 58.213 33.2895 58.1382 33.29L55.7572 33.296C55.6059 33.302 55.487 33.4276 55.4893 33.5789V33.5789Z" fill="#962F4A"/>
<path d="M56.9609 34.7945C56.9611 34.8691 56.9685 34.9434 56.9829 35.0165H56.9909C57.7402 35.0142 58.3626 34.4379 58.4224 33.691C58.3188 33.6607 58.2114 33.6455 58.1035 33.646C57.7997 33.6468 57.5086 33.7683 57.2943 33.9836C57.0801 34.199 56.9601 34.4907 56.9609 34.7945V34.7945Z" fill="#E1617F"/>
<path d="M55.8203 33.2989C55.8323 33.5818 56.2691 33.8067 56.8049 33.8057C57.3407 33.8047 57.7755 33.5768 57.7855 33.2939L55.8203 33.2989Z" fill="white"/>
<path d="M51.6992 31.8377C51.6993 35.2635 54.3762 38.0922 57.7968 38.2811C57.9747 38.2721 58.1516 38.2551 58.3266 38.2301C55.1321 37.7915 52.7519 35.0621 52.7519 31.8377C52.7519 28.6133 55.1321 25.8839 58.3266 25.4452C58.1516 25.4213 57.9747 25.4043 57.7968 25.3953C54.3764 25.5837 51.6993 28.4121 51.6992 31.8377Z" fill="#EA8681"/>
<path d="M63.4743 43.3141V43.3811C63.5373 45.5123 64.9587 47.2026 66.694 47.2276H66.806C68.6112 47.1806 70.0447 45.3503 70.0047 43.1412C69.9847 41.9177 69.7248 40.9281 69.0051 40.2134C68.5746 39.8165 68.063 39.5181 67.5057 39.3387C67.0505 39.2039 66.5678 39.1915 66.1062 39.3028C64.5828 39.6706 63.4423 41.3409 63.4743 43.3141V43.3141Z" fill="#FAEEDE"/>
<path d="M63.3459 43.231V43.299C63.4009 44.8373 64.1586 46.1528 65.2342 46.7976C64.6733 46.0448 64.359 45.137 64.3345 44.1986C64.3345 44.1756 64.3345 44.1536 64.3345 44.1306C64.2916 42.1254 65.4581 40.4321 67.0335 40.0683C67.2242 40.0229 67.4192 39.9981 67.6152 39.9943C67.9084 39.9884 68.2007 40.0279 68.4819 40.1112C68.7274 40.1843 68.9625 40.2884 69.1816 40.4211C68.7618 39.8486 68.1704 39.425 67.4933 39.2116C67.0225 39.071 66.5231 39.0562 66.0449 39.1686C64.4685 39.5355 63.3019 41.2268 63.3459 43.231V43.231Z" fill="#F2E6D7"/>
<path d="M64.6866 44.8449C63.9433 43.2459 64.6371 41.3472 66.2361 40.6039V40.6039C67.8351 39.8607 69.7338 40.5544 70.4771 42.1534L74.7861 51.4238C75.5294 53.0228 74.8356 54.9215 73.2367 55.6648V55.6648C71.6377 56.408 69.7389 55.7143 68.9957 54.1153L64.6866 44.8449Z" fill="#FAEEDE"/>
<circle cx="71.6639" cy="52.7132" r="3.42663" fill="#F2E6D7"/>
<path d="M64.6866 44.8449C63.9433 43.2459 64.6371 41.3472 66.2361 40.6039V40.6039C67.8351 39.8607 69.7338 40.5544 70.4771 42.1534L74.7861 51.4238C75.5294 53.0228 74.8356 54.9215 73.2367 55.6648V55.6648C71.6377 56.408 69.7389 55.7143 68.9957 54.1153L64.6866 44.8449Z" fill="#FAEEDE"/>
<path d="M64.5654 42.4585C65.1905 41.4718 66.3043 40.9053 67.4698 40.9811C68.6352 41.0569 69.6663 41.763 70.1582 42.8223L74.4665 52.0926C74.8158 52.8421 74.8603 53.698 74.5904 54.4796C74.9149 53.9681 75.0882 53.3752 75.0902 52.7693C75.0898 52.3053 74.9874 51.847 74.7903 51.4269L70.4821 42.1566C69.9347 40.9754 68.7247 40.2451 67.4245 40.311C66.1243 40.3769 64.9945 41.226 64.5694 42.4565L64.5654 42.4585Z" fill="#FFF7EE"/>
<circle cx="71.6639" cy="52.7132" r="3.42663" fill="#F2E6D7"/>
<rect x="65.873" y="30.3582" width="15.8097" height="6.18153" rx="3.09076" transform="rotate(-180 65.873 30.3582)" fill="#332D52"/>
<circle cx="64.0683" cy="30.674" r="2.66693" fill="#332D52"/>
<circle cx="64.5456" cy="31.1508" r="2.19012" fill="#49466B"/>
<circle cx="64.5971" cy="31.8386" r="2.13814" fill="#EF948C"/>
<path d="M64.4297 32.5074V31.171C64.4298 31.1034 64.4623 31.0399 64.5171 31.0004C64.5719 30.9608 64.6424 30.9499 64.7066 30.971C65.084 31.092 65.34 31.4429 65.34 31.8392C65.34 32.2355 65.084 32.5864 64.7066 32.7073C64.6424 32.728 64.5722 32.7169 64.5175 32.6774C64.4629 32.638 64.4303 32.5748 64.4297 32.5074H64.4297Z" fill="#EA8681"/>
<circle cx="53.6264" cy="26.3278" r="4.08537" fill="#332D52"/>
<path d="M49.9131 26.3278C49.9122 27.3058 50.3301 28.2374 51.0612 28.887C51.7922 29.5367 52.7664 29.8422 53.7376 29.7264C52.018 29.5216 50.7232 28.0635 50.7232 26.3318C50.7232 24.6001 52.018 23.1419 53.7376 22.9372C52.7664 22.8214 51.7922 23.1269 51.0612 23.7766C50.3301 24.4262 49.9122 25.3578 49.9131 26.3358V26.3278Z" fill="#49466B"/>
<circle cx="56.8607" cy="23.8568" r="2.81088" fill="#332D52"/>
<path d="M53.7373 31.3327C53.7521 31.7407 54.0872 32.0638 54.4955 32.0638C54.9038 32.0638 55.2389 31.7407 55.2537 31.3327C55.2539 31.2734 55.2469 31.2143 55.2327 31.1567C55.1516 31.4983 54.8465 31.7394 54.4955 31.7394C54.1445 31.7394 53.8394 31.4983 53.7583 31.1567C53.7441 31.2143 53.7371 31.2734 53.7373 31.3327V31.3327Z" fill="#332D52"/>
<path d="M57.9023 31.3327C57.9023 31.7517 58.242 32.0914 58.661 32.0914C59.0801 32.0914 59.4197 31.7517 59.4197 31.3327C59.42 31.2734 59.4129 31.2143 59.3988 31.1567C59.3168 31.4978 59.0118 31.7382 58.661 31.7382C58.3103 31.7382 58.0053 31.4978 57.9233 31.1567C57.9092 31.2143 57.9021 31.2734 57.9023 31.3327V31.3327Z" fill="#332D52"/>
<path d="M58.8105 93.8758H66.9753C66.9756 91.8885 65.545 90.1895 63.5866 89.8514C63.3574 89.8128 63.1254 89.7934 62.8929 89.7935C61.8101 89.7932 60.7716 90.2232 60.006 90.9889C59.2403 91.7545 58.8103 92.793 58.8105 93.8758V93.8758Z" fill="#332D52"/>
<path d="M58.8105 93.8758H60.6958C60.6967 92.0535 61.8598 90.4347 63.5866 89.8524C63.3574 89.8138 63.1254 89.7944 62.8929 89.7944C61.8103 89.7942 60.7719 90.2241 60.0063 90.9895C59.2407 91.7549 58.8105 92.7932 58.8105 93.8758V93.8758Z" fill="#49466B"/>
<path d="M57.6797 93.137C57.68 93.2169 57.6881 93.2966 57.7037 93.3749C57.7113 93.4131 57.721 93.4508 57.7327 93.4879C57.7439 93.5246 57.7573 93.5607 57.7727 93.5959C57.8165 93.701 57.8758 93.7991 57.9486 93.8867C57.9726 93.9157 57.9976 93.9427 58.0245 93.9697C58.0511 93.9963 58.0791 94.0213 58.1085 94.0447C58.319 94.2191 58.5839 94.3143 58.8572 94.3136H67.5697C68.0516 94.3146 68.4461 93.9306 68.458 93.4489C68.47 92.9672 68.095 92.5641 67.6137 92.5413L61.0823 92.1055L58.9142 91.9605C58.719 91.9505 58.5245 91.9897 58.3484 92.0745C58.2973 92.0995 58.2479 92.1279 58.2005 92.1594C58.1543 92.1902 58.1099 92.2236 58.0675 92.2594C58.0255 92.2974 57.9864 92.3385 57.9506 92.3823C57.9263 92.4114 57.9036 92.4418 57.8826 92.4733C57.807 92.5844 57.7516 92.7079 57.7187 92.8382C57.7086 92.8757 57.7006 92.9137 57.6947 92.9521C57.6849 93.0133 57.6799 93.0751 57.6797 93.137H57.6797Z" fill="#332D52"/>
<path d="M57.6797 93.137C57.68 93.2169 57.6881 93.2966 57.7037 93.3749C57.7109 93.4132 57.7205 93.4509 57.7327 93.4879C57.7435 93.5248 57.7568 93.5609 57.7727 93.5959C57.8165 93.701 57.8758 93.7991 57.9486 93.8867C57.9726 93.9157 57.9976 93.9427 58.0245 93.9697C58.0511 93.9963 58.0791 94.0213 58.1085 94.0447C58.319 94.2191 58.5839 94.3143 58.8572 94.3136H61.6511C61.1132 94.315 60.6429 93.9514 60.5087 93.4305C60.3745 92.9096 60.6107 92.3641 61.0823 92.1055L58.9142 91.9605C58.719 91.9505 58.5245 91.9897 58.3484 92.0745C58.2463 92.1238 58.1517 92.1874 58.0675 92.2634C58.0255 92.3014 57.9864 92.3425 57.9506 92.3863C57.9259 92.4151 57.9032 92.4455 57.8826 92.4773C57.807 92.5884 57.7516 92.7119 57.7187 92.8422C57.7086 92.8797 57.7006 92.9177 57.6947 92.9561C57.6851 93.016 57.6801 93.0764 57.6797 93.137H57.6797Z" fill="#49466B"/>
<path d="M35.9785 92.9519L29.4184 90.1943L30.4581 87.721L35.952 90.0304C36.2348 90.1493 36.4588 90.3756 36.5746 90.6596C36.6905 90.9436 36.6889 91.262 36.57 91.5448L35.9785 92.9519Z" fill="#49466B"/>
<path d="M24.4609 88.9909L31.9879 92.1546C32.5531 90.81 32.358 89.2661 31.4761 88.1044C30.5943 86.9427 29.1596 86.3397 27.7126 86.5225C26.2656 86.7054 25.0261 87.6463 24.4609 88.9909H24.4609Z" fill="#332D52"/>
<path d="M24.4609 88.9907L26.5761 89.8844C27.2784 88.2129 28.9989 87.2048 30.8004 87.4094C29.8026 86.5985 28.4812 86.3049 27.2339 86.6171C25.9867 86.9292 24.9592 87.8105 24.4609 88.9957L24.4609 88.9907Z" fill="#49466B"/>
<path d="M36.4768 92.5933L25.6642 87.4184C25.3736 87.2795 25.0388 87.2656 24.7378 87.3801C24.4367 87.4945 24.1957 87.7273 24.0708 88.0242C23.9496 88.3121 23.9477 88.6363 24.0656 88.9256C24.1836 89.2149 24.4116 89.4455 24.6995 89.5666L35.7501 94.2117C35.967 94.303 36.2112 94.3044 36.4291 94.2155C36.6469 94.1266 36.8205 93.9548 36.9117 93.7379C37.0951 93.3015 36.9038 92.7979 36.4768 92.5933V92.5933Z" fill="#332D52"/>
<path d="M24.0707 88.0251C23.819 88.6244 24.1004 89.3143 24.6995 89.5665L27.2745 90.6491C26.763 90.4364 26.469 89.896 26.5681 89.3511C26.6672 88.8061 27.1327 88.4039 27.6863 88.385L25.6651 87.4164C25.3741 87.2773 25.0387 87.2637 24.7373 87.3787C24.436 87.4938 24.195 87.7274 24.0707 88.0251V88.0251Z" fill="#49466B"/>
<path d="M71.6641 57.5354L72.3388 59.4586L73.5253 62.8463L84.5549 94.3187H87.0149L78.5603 62.8463L77.6507 59.4586L77.1339 57.5354H71.6641Z" fill="#441242"/>
<path d="M72.3389 59.4585L73.5254 62.8461H78.5604L77.6507 59.4585H72.3389Z" fill="#2F073A"/>
<path d="M36.4319 57.5354L35.7572 59.4586L34.5707 62.8463L23.5411 94.3187H21.0811L29.5357 62.8463L30.4453 59.4586L30.9621 57.5354H36.4319Z" fill="#441242"/>
<path d="M35.7567 59.4585L34.5701 62.8461H29.5352L30.4448 59.4585H35.7567Z" fill="#2F073A"/>
<path d="M84.0375 60.9231L25.4439 60.9231C24.6358 60.9236 23.9797 60.2698 23.9775 59.4617V57.5404L85.5039 57.5404V59.4617C85.5017 60.2698 84.8456 60.9236 84.0375 60.9231Z" fill="#441242"/>
<rect x="92.8916" y="58.4399" width="76.3025" height="2.68692" rx="1.34346" transform="rotate(-180 92.8916 58.4399)" fill="#D8BA9F"/>
<path d="M16.5898 57.0976C16.5904 57.8394 17.1916 58.4405 17.9333 58.4411H91.5488C92.2908 58.4411 92.8923 57.8396 92.8923 57.0976C92.8927 56.939 92.8646 56.7815 92.8093 56.6328C92.6146 57.1606 92.1114 57.5109 91.5488 57.5105H17.9333C17.5768 57.5114 17.2349 57.3695 16.9837 57.1166C16.8456 56.9805 16.7397 56.8152 16.6738 56.6328C16.6182 56.7815 16.5898 56.9389 16.5898 57.0976Z" fill="#C89F87"/>
<circle cx="83.2751" cy="59.6465" r="0.496801" fill="#D8BA9F"/>
<circle cx="83.1673" cy="59.6795" r="0.605758" fill="#2F073A"/>
<circle cx="83.2751" cy="59.6465" r="0.496801" fill="#D8BA9F"/>
<path d="M82.7783 59.6465C82.7783 59.9226 83.0021 60.1463 83.2781 60.1463H83.3301C83.0853 60.1097 82.9042 59.8995 82.9042 59.652C82.9042 59.4046 83.0853 59.1943 83.3301 59.1577C83.3128 59.1567 83.2954 59.1567 83.2781 59.1577C83.0063 59.1577 82.7843 59.3748 82.7783 59.6465H82.7783Z" fill="#C89F87"/>
<path d="M83.2744 59.9183C83.2996 59.9264 83.3259 59.9304 83.3524 59.9303C83.5092 59.9303 83.6363 59.8032 83.6363 59.6464C83.6363 59.4897 83.5092 59.3626 83.3524 59.3626C83.3259 59.3625 83.2996 59.3665 83.2744 59.3745C83.3969 59.4081 83.4819 59.5194 83.4819 59.6464C83.4819 59.7735 83.3969 59.8848 83.2744 59.9183H83.2744Z" fill="#F5EAE4"/>
<circle cx="80.4958" cy="59.6465" r="0.496801" fill="#D8BA9F"/>
<circle cx="80.388" cy="59.6795" r="0.605758" fill="#2F073A"/>
<circle cx="80.4958" cy="59.6465" r="0.496801" fill="#D8BA9F"/>
<path d="M80 59.6466C80 59.9226 80.2238 60.1464 80.4998 60.1464H80.5518C80.307 60.1097 80.1259 59.8995 80.1259 59.6521C80.1259 59.4046 80.307 59.1944 80.5518 59.1577C80.5345 59.1567 80.5171 59.1567 80.4998 59.1577C80.228 59.1577 80.006 59.3748 80 59.6466H80Z" fill="#C89F87"/>
<path d="M80.4961 59.9183C80.5213 59.9264 80.5476 59.9304 80.5741 59.9303C80.7308 59.9303 80.8579 59.8032 80.8579 59.6464C80.8579 59.4897 80.7308 59.3626 80.5741 59.3626C80.5476 59.3625 80.5213 59.3665 80.4961 59.3745C80.6186 59.4081 80.7036 59.5194 80.7036 59.6464C80.7036 59.7735 80.6186 59.8848 80.4961 59.9183H80.4961Z" fill="#F5EAE4"/>
<circle cx="26.4743" cy="59.6465" r="0.496801" fill="#D8BA9F"/>
<circle cx="26.5823" cy="59.6795" r="0.605758" fill="#2F073A"/>
<circle cx="26.4743" cy="59.6465" r="0.496801" fill="#D8BA9F"/>
<path d="M26.9717 59.6465C26.9717 59.9226 26.7479 60.1463 26.4719 60.1463H26.4199C26.6647 60.1097 26.8458 59.8995 26.8458 59.652C26.8458 59.4046 26.6647 59.1943 26.4199 59.1577C26.4372 59.1567 26.4546 59.1567 26.4719 59.1577C26.7437 59.1577 26.9657 59.3748 26.9717 59.6465Z" fill="#C89F87"/>
<path d="M26.4742 59.9183C26.449 59.9264 26.4226 59.9304 26.3962 59.9303C26.2948 59.9303 26.201 59.8762 26.1503 59.7884C26.0996 59.7005 26.0996 59.5923 26.1503 59.5045C26.201 59.4167 26.2948 59.3626 26.3962 59.3626C26.4226 59.3625 26.449 59.3665 26.4742 59.3745C26.3529 59.4094 26.2694 59.5203 26.2694 59.6464C26.2694 59.7726 26.3529 59.8835 26.4742 59.9183V59.9183Z" fill="#F5EAE4"/>
<circle cx="29.2536" cy="59.6465" r="0.496801" fill="#D8BA9F"/>
<circle cx="29.3616" cy="59.6795" r="0.605758" fill="#2F073A"/>
<circle cx="29.2536" cy="59.6465" r="0.496801" fill="#D8BA9F"/>
<path d="M29.749 59.6465C29.749 59.9226 29.5253 60.1463 29.2492 60.1463H29.1973C29.442 60.1097 29.6231 59.8995 29.6231 59.652C29.6231 59.4046 29.442 59.1943 29.1973 59.1577C29.2146 59.1567 29.2319 59.1567 29.2492 59.1577C29.521 59.1577 29.7431 59.3748 29.749 59.6465V59.6465Z" fill="#C89F87"/>
<path d="M29.2535 59.9183C29.2283 59.9264 29.2019 59.9304 29.1755 59.9303C29.0187 59.9303 28.8916 59.8032 28.8916 59.6464C28.8916 59.4897 29.0187 59.3626 29.1755 59.3626C29.2019 59.3625 29.2283 59.3665 29.2535 59.3745C29.1309 59.4081 29.046 59.5194 29.046 59.6464C29.046 59.7735 29.1309 59.8848 29.2535 59.9183V59.9183Z" fill="#F5EAE4"/>
<path d="M59.3035 50.6633C59.823 50.6157 60.2827 50.9983 60.3302 51.5178V51.5178C60.3778 52.0374 59.9952 52.4971 59.4757 52.5446L56.5461 52.8128C56.0266 52.8603 55.5668 52.4777 55.5193 51.9582V51.9582C55.4717 51.4387 55.8543 50.979 56.3739 50.9314L59.3035 50.6633Z" fill="#EA8681"/>
<circle cx="59.6738" cy="52.4013" r="1.86126" fill="#EA8681"/>
<path d="M60.6646 55.8063C59.2086 55.7918 58.0401 54.5997 58.0545 53.1437V53.1437C58.069 51.6877 59.2611 50.5191 60.7171 50.5336L72.052 50.6464C73.508 50.6609 74.6766 51.8529 74.6621 53.3089V53.3089C74.6476 54.7649 73.4555 55.9335 71.9995 55.919L60.6646 55.8063Z" fill="#EF948C"/>
<path d="M58.6904 51.1318C59.8241 50.2403 61.4659 50.4366 62.3574 51.5704V51.5704C63.2489 52.7041 63.0526 54.3459 61.9188 55.2374L60.1226 56.6499C58.9889 57.5414 57.3471 57.345 56.4556 56.2113V56.2113C55.564 55.0776 55.7604 53.4358 56.8941 52.5443L58.6904 51.1318Z" fill="#EF948C"/>
<path d="M58.2936 51.4433C58.7037 51.1208 59.2976 51.1918 59.62 51.6019V51.6019C59.9425 52.012 59.8715 52.6059 59.4614 52.9284L55.3039 56.1976C54.8939 56.5201 54.3 56.4491 53.9775 56.039V56.039C53.655 55.6289 53.726 55.035 54.1361 54.7125L58.2936 51.4433Z" fill="#EF948C"/>
<path d="M59.3035 50.6633C59.823 50.6157 60.2827 50.9983 60.3302 51.5178V51.5178C60.3778 52.0374 59.9952 52.4971 59.4757 52.5446L56.5461 52.8128C56.0266 52.8603 55.5668 52.4777 55.5193 51.9582V51.9582C55.4717 51.4387 55.8543 50.979 56.3739 50.9314L59.3035 50.6633Z" fill="#EF948C"/>
<circle cx="59.6728" cy="52.4013" r="1.86126" fill="#EF948C"/>
<path d="M60.6646 55.8063C59.2086 55.7918 58.0401 54.5997 58.0545 53.1437V53.1437C58.069 51.6877 59.2611 50.5191 60.7171 50.5336L72.052 50.6464C73.508 50.6609 74.6766 51.8529 74.6621 53.3089V53.3089C74.6476 54.7649 73.4555 55.9335 71.9995 55.919L60.6646 55.8063Z" fill="#EF948C"/>
<path d="M58.6904 51.1318C59.8241 50.2403 61.4659 50.4366 62.3574 51.5704V51.5704C63.2489 52.7041 63.0526 54.3459 61.9188 55.2374L60.1226 56.6499C58.9889 57.5414 57.3471 57.345 56.4556 56.2113V56.2113C55.564 55.0776 55.7604 53.4358 56.8941 52.5443L58.6904 51.1318Z" fill="#EF948C"/>
<path d="M56.2024 55.5513C57.094 56.6851 58.736 56.8816 59.8699 55.9901L60.1698 55.7532L60.9375 55.1534L62.0191 55.1634L71.7332 55.2634C73.1892 55.2778 74.3813 54.1094 74.3961 52.6534V52.6264C74.3963 52.4128 74.3701 52.1999 74.3181 51.9927C74.5417 52.3871 74.6588 52.8328 74.658 53.2862V53.3131C74.6437 54.7691 73.452 55.938 71.9961 55.9241L61.2004 55.8171L60.1308 56.6578C59.4334 57.2055 58.5057 57.3621 57.6671 57.0737C56.8285 56.7853 56.1935 56.0912 55.9805 55.2304C56.0464 55.3427 56.1206 55.4499 56.2024 55.5513V55.5513Z" fill="#F3A6A0"/>
<path d="M58.2936 51.4433C58.7037 51.1208 59.2976 51.1918 59.62 51.6019V51.6019C59.9425 52.012 59.8715 52.6059 59.4614 52.9284L55.3039 56.1976C54.8939 56.5201 54.3 56.4491 53.9775 56.039V56.039C53.655 55.6289 53.726 55.035 54.1361 54.7125L58.2936 51.4433Z" fill="#EF948C"/>
<path d="M59.5773 53.1389C59.9354 52.8574 60.4538 52.9194 60.7353 53.2774V53.2774C61.0169 53.6354 60.9549 54.1539 60.5968 54.4354L59.3899 55.3845C59.0319 55.666 58.5134 55.604 58.2319 55.246V55.246C57.9504 54.888 58.0124 54.3695 58.3704 54.088L59.5773 53.1389Z" fill="#F3A6A0"/>
<circle cx="53.2296" cy="31.3958" r="2.7579" stroke="white"/>
<circle cx="59.7374" cy="31.3958" r="2.7579" stroke="white"/>
<path d="M55.9854 31.5038H56.981" stroke="white"/>
<path d="M30.4785 85.4133L38.1165 88.4751L38.9791 86.2389L31.5121 81.7927L30.4815 84.4597L30.4785 85.4133Z" fill="#141334"/>
<path d="M41.6328 54.9204H40.0694V54.6205C40.0694 54.3368 40.2994 54.1067 40.5832 54.1067H41.12C41.4038 54.1067 41.6338 54.3368 41.6338 54.6205V54.9204L41.6328 54.9204Z" fill="#ABB2D8"/>
<path d="M43.1963 54.9204H41.6329V54.6205C41.6329 54.3368 41.8629 54.1067 42.1467 54.1067H42.6835C42.9672 54.1067 43.1973 54.3368 43.1973 54.6205V54.9204L43.1963 54.9204Z" fill="#ABB2D8"/>
<path d="M44.7607 54.9204H43.1973V54.6205C43.1973 54.3368 43.4274 54.1067 43.7111 54.1067H44.2479C44.5317 54.1067 44.7617 54.3368 44.7617 54.6205V54.9204L44.7607 54.9204Z" fill="#ABB2D8"/>
<path d="M46.3242 54.9204H44.7608V54.6205C44.7608 54.3368 44.9909 54.1067 45.2746 54.1067H45.8114C46.0952 54.1067 46.3252 54.3368 46.3252 54.6205V54.9204L46.3242 54.9204Z" fill="#ABB2D8"/>
<path d="M47.8877 54.9204H46.3243V54.6205C46.3243 54.3368 46.5543 54.1067 46.8381 54.1067H47.3749C47.6586 54.1067 47.8887 54.3368 47.8887 54.6205V54.9204L47.8877 54.9204Z" fill="#ABB2D8"/>
<path d="M49.4512 54.9204H47.8878V54.6205C47.8878 54.3368 48.1178 54.1067 48.4016 54.1067H48.9374C49.2211 54.1067 49.4512 54.3368 49.4512 54.6205V54.9204L49.4512 54.9204Z" fill="#ABB2D8"/>
<path d="M51.0136 54.9204H49.4503V54.6205C49.4503 54.3368 49.6803 54.1067 49.9641 54.1067H50.5009C50.7846 54.1067 51.0146 54.3368 51.0146 54.6205V54.9204L51.0136 54.9204Z" fill="#ABB2D8"/>
<rect x="53.0928" y="55.7532" width="17.8469" height="1.27449" rx="0.637245" transform="rotate(-180 53.0928 55.7532)" fill="#5D6295"/>
<path d="M40.1622 55.7531H25.2682C24.6441 55.7531 24.0998 55.3288 23.9477 54.7235L21.0489 43.1921C20.9466 42.785 21.0378 42.3534 21.296 42.0223C21.5541 41.6913 21.9505 41.4978 22.3703 41.4978H35.5131C36.1372 41.4978 36.6814 41.9221 36.8335 42.5274L40.1622 55.7531Z" fill="#666DA2"/>
<path d="M21.0479 43.1931L23.9467 54.7235C24.0995 55.3289 24.6438 55.7534 25.2682 55.7541H40.1622L39.8413 54.4796H28.076C27.4515 54.4793 26.907 54.0547 26.7546 53.449L23.8557 41.9186C23.8212 41.7812 23.8081 41.6392 23.8167 41.4978H22.3693C21.9494 41.4981 21.5531 41.6919 21.2949 42.023C21.0368 42.3542 20.9456 42.7859 21.0479 43.1931V43.1931Z" fill="#5D6295"/>
<circle cx="29.6725" cy="49.0067" r="0.745702" fill="#ABB2D8"/>
<path d="M28.6748 50.1223C28.9988 50.6227 29.5945 50.8759 30.1796 50.7621C30.7648 50.6482 31.2221 50.1901 31.3348 49.6046C31.4475 49.0192 31.1931 48.4241 30.692 48.1011C31.0591 48.6789 30.9759 49.4341 30.4918 49.9181C30.0078 50.4021 29.2526 50.4853 28.6748 50.1183L28.6748 50.1223Z" fill="#ABB2D8"/>
<path d="M58.8094 88.9697H67.3779L68.2516 86.7676L57.25 85.0403L58.8094 88.9697Z" fill="#332D52"/>
<circle cx="66.6666" cy="88.0521" r="0.534786" fill="#141334"/>
<circle cx="66.6975" cy="88.197" r="0.389844" fill="#666DA2"/>
<path d="M66.6934 88.4521C66.7105 88.4552 66.7279 88.4569 66.7453 88.4571C66.8829 88.4485 66.9901 88.3345 66.9901 88.1967C66.9901 88.0589 66.8829 87.9448 66.7453 87.9363C66.7278 87.9362 66.7104 87.9383 66.6934 87.9423C66.8132 87.9684 66.8986 88.0745 66.8986 88.1972C66.8986 88.3198 66.8132 88.4259 66.6934 88.4521V88.4521Z" fill="#332D52"/>
<path d="M66.7576 87.8713C66.7356 87.8664 66.7131 87.864 66.6906 87.8643C66.5141 87.874 66.376 88.0199 66.376 88.1966C66.376 88.3734 66.5141 88.5193 66.6906 88.529C66.7131 88.5293 66.7356 88.5269 66.7576 88.522C66.6043 88.4889 66.495 88.3534 66.495 88.1966C66.495 88.0399 66.6043 87.9044 66.7576 87.8713V87.8713Z" fill="#9DA5D1"/>
<path d="M29.8389 85.9341L37.7917 89.1218L39.422 87.4035L29.8529 81.7068L29.8389 85.9341Z" fill="#262344"/>
<circle cx="37.5153" cy="87.6832" r="0.534786" fill="#141334"/>
<circle cx="37.5461" cy="87.8283" r="0.389844" fill="#666DA2"/>
<path d="M37.5459 88.0853C37.5629 88.0893 37.5804 88.0913 37.5979 88.0913C37.7354 88.0827 37.8426 87.9687 37.8426 87.8309C37.8426 87.693 37.7354 87.579 37.5979 87.5705C37.5806 87.569 37.5632 87.569 37.5459 87.5705C37.6657 87.5966 37.7512 87.7027 37.7512 87.8254C37.7512 87.948 37.6657 88.0541 37.5459 88.0803L37.5459 88.0853Z" fill="#332D52"/>
<path d="M37.6052 87.5024C37.5833 87.4975 37.5608 87.4951 37.5383 87.4954C37.3618 87.5051 37.2236 87.651 37.2236 87.8277C37.2236 88.0045 37.3618 88.1504 37.5383 88.1601C37.5608 88.1604 37.5833 88.158 37.6052 88.1531C37.452 88.12 37.3426 87.9845 37.3426 87.8277C37.3426 87.671 37.452 87.5355 37.6052 87.5024V87.5024Z" fill="#9DA5D1"/>
</svg>
