<svg width="24" height="23" viewBox="0 0 24 23" fill="none" xmlns="http://www.w3.org/2000/svg">
<path d="M21.5 10.7015V16.2537C21.5 19.9552 20.5 20.8806 16.5 20.8806H6.5C2.5 20.8806 1.5 19.9552 1.5 16.2537V6.99997C1.5 3.29848 2.5 2.37311 6.5 2.37311H8C9.5 2.37311 9.83 2.78027 10.4 3.48356L11.9 5.3343C12.28 5.79699 12.5 6.0746 13.5 6.0746H16.5C20.5 6.0746 21.5 6.99997 21.5 10.7015Z" stroke="#424242" stroke-miterlimit="10"/>
<path d="M8 2.37311H17C19 2.37311 20 3.29848 20 5.14923V6.42624" stroke="#424242" stroke-miterlimit="10" stroke-linecap="round" stroke-linejoin="round"/>
<path d="M14 14.403H9" stroke="#ffffff" stroke-miterlimit="10" stroke-linecap="round" stroke-linejoin="round"/>
</svg>
